<?xml version="1.0" encoding="utf-8"?>
<!-- Generator: Adobe Illustrator 25.3.1, SVG Export Plug-In . SVG Version: 6.00 Build 0)  -->
<!DOCTYPE svg PUBLIC "-//W3C//DTD SVG 1.1//EN" "http://www.w3.org/Graphics/SVG/1.1/DTD/svg11.dtd" [
	<!ENTITY ns_extend "http://ns.adobe.com/Extensibility/1.0/">
	<!ENTITY ns_ai "http://ns.adobe.com/AdobeIllustrator/10.0/">
	<!ENTITY ns_graphs "http://ns.adobe.com/Graphs/1.0/">
	<!ENTITY ns_vars "http://ns.adobe.com/Variables/1.0/">
	<!ENTITY ns_imrep "http://ns.adobe.com/ImageReplacement/1.0/">
	<!ENTITY ns_sfw "http://ns.adobe.com/SaveForWeb/1.0/">
	<!ENTITY ns_custom "http://ns.adobe.com/GenericCustomNamespace/1.0/">
	<!ENTITY ns_adobe_xpath "http://ns.adobe.com/XPath/1.0/">
]>
<svg version="1.1" id="レイヤー_1" xmlns:x="&ns_extend;" xmlns:i="&ns_ai;" xmlns:graph="&ns_graphs;"
	 xmlns="http://www.w3.org/2000/svg" xmlns:xlink="http://www.w3.org/1999/xlink" x="0px" y="0px" viewBox="0 0 268.6 69.5"
	 style="enable-background:new 0 0 268.6 69.5;" xml:space="preserve">
<metadata>
	<sfw  xmlns="&ns_sfw;">
		<slices></slices>
		<sliceSourceBounds  bottomLeftOrigin="true" height="69.6" width="268.7" x="0" y="0"></sliceSourceBounds>
	</sfw>
</metadata>
<g>
	<path d="M0,0.7h9.6v68.1H0V0.7z M4.8,59.7h39v9.1h-39C4.8,68.8,4.8,59.7,4.8,59.7z"/>
	<path d="M79.4,66.4c-3.6-2.1-6.4-5-8.4-8.8s-3-8.2-3-13.2V25.1c0-5,1-9.4,3-13.2s4.8-6.7,8.4-8.8S87.2,0,91.9,0
		c4.7,0,8.9,1,12.6,3.1c3.6,2.1,6.4,5,8.4,8.8s3,8.2,3,13.2v19.3c0,5-1,9.4-3,13.2c-2,3.8-4.8,6.7-8.4,8.8
		c-3.6,2.1-7.8,3.1-12.6,3.1C87.2,69.5,83,68.5,79.4,66.4z M99.4,58.2c2.1-1.3,3.8-3.1,5-5.4c1.2-2.3,1.8-5,1.8-8.1v-20
		c0-3.1-0.6-5.8-1.8-8.1c-1.2-2.3-2.8-4.1-5-5.4c-2.1-1.3-4.6-1.9-7.4-1.9s-5.3,0.6-7.4,1.9s-3.8,3.1-5,5.4s-1.8,5-1.8,8.1v20
		c0,3.1,0.6,5.8,1.8,8.1c1.2,2.3,2.8,4.1,5,5.4c2.1,1.3,4.6,1.9,7.4,1.9S97.2,59.5,99.4,58.2z"/>
	<path d="M192.3,32.1V44c0,5.1-1,9.5-3,13.4s-4.8,6.8-8.4,8.9c-3.6,2.1-7.8,3.2-12.5,3.2c-4.8,0-9-1-12.7-3c-3.6-2-6.5-4.8-8.5-8.4
		c-2-3.6-3-7.8-3-12.6V25.4c0-5.1,1-9.5,3-13.4c2-3.8,4.8-6.8,8.4-8.9c3.6-2.1,7.8-3.2,12.5-3.2c3.9,0,7.5,0.8,10.8,2.5
		s6.1,4,8.3,7.1s3.7,6.6,4.5,10.6h-10.4c-0.6-2.3-1.5-4.2-2.9-5.9c-1.3-1.6-2.9-2.9-4.7-3.7c-1.8-0.9-3.7-1.3-5.6-1.3
		c-2.8,0-5.3,0.7-7.4,2c-2.1,1.3-3.8,3.2-4.9,5.6c-1.2,2.4-1.7,5.2-1.7,8.5v20.1c0,2.9,0.6,5.5,1.8,7.7s2.9,3.9,5,5.1
		c2.2,1.2,4.7,1.8,7.5,1.8s5.3-0.6,7.4-1.9s3.8-3.1,4.9-5.5c1.2-2.4,1.7-5.3,1.7-8.6v-3h-13.8v-9.1h23.7V32.1z"/>
	<path d="M232.1,66.4c-3.6-2.1-6.4-5-8.4-8.8s-3-8.2-3-13.2V25.1c0-5,1-9.4,3-13.2s4.8-6.7,8.4-8.8C235.8,1,240,0,244.7,0
		s8.9,1,12.6,3.1c3.6,2.1,6.4,5,8.4,8.8s3,8.2,3,13.2v19.3c0,5-1,9.4-3,13.2c-2,3.8-4.8,6.7-8.4,8.8c-3.6,2.1-7.8,3.1-12.6,3.1
		S235.8,68.5,232.1,66.4z M252.1,58.2c2.1-1.3,3.8-3.1,5-5.4c1.2-2.3,1.8-5,1.8-8.1v-20c0-3.1-0.6-5.8-1.8-8.1
		c-1.2-2.3-2.8-4.1-5-5.4c-2.1-1.3-4.6-1.9-7.4-1.9s-5.3,0.6-7.4,1.9c-2.1,1.3-3.8,3.1-5,5.4s-1.8,5-1.8,8.1v20
		c0,3.1,0.6,5.8,1.8,8.1s2.8,4.1,5,5.4c2.1,1.3,4.6,1.9,7.4,1.9S250,59.5,252.1,58.2z"/>
</g>
</svg>
