<?xml version="1.0" encoding="utf-8"?>
<!-- Generator: Adobe Illustrator 25.3.1, SVG Export Plug-In . SVG Version: 6.00 Build 0)  -->
<!DOCTYPE svg PUBLIC "-//W3C//DTD SVG 1.1//EN" "http://www.w3.org/Graphics/SVG/1.1/DTD/svg11.dtd" [
	<!ENTITY ns_extend "http://ns.adobe.com/Extensibility/1.0/">
	<!ENTITY ns_ai "http://ns.adobe.com/AdobeIllustrator/10.0/">
	<!ENTITY ns_graphs "http://ns.adobe.com/Graphs/1.0/">
	<!ENTITY ns_vars "http://ns.adobe.com/Variables/1.0/">
	<!ENTITY ns_imrep "http://ns.adobe.com/ImageReplacement/1.0/">
	<!ENTITY ns_sfw "http://ns.adobe.com/SaveForWeb/1.0/">
	<!ENTITY ns_custom "http://ns.adobe.com/GenericCustomNamespace/1.0/">
	<!ENTITY ns_adobe_xpath "http://ns.adobe.com/XPath/1.0/">
]>
<svg version="1.1" id="レイヤー_1" xmlns:x="&ns_extend;" xmlns:i="&ns_ai;" xmlns:graph="&ns_graphs;"
	 xmlns="http://www.w3.org/2000/svg" xmlns:xlink="http://www.w3.org/1999/xlink" x="0px" y="0px" viewBox="0 0 161.9 84.3"
	 style="enable-background:new 0 0 161.9 84.3;" xml:space="preserve">
<style type="text/css">
	.st0{fill:none;}
	.st1{fill-rule:evenodd;clip-rule:evenodd;fill:#CC2446;}
	.st2{fill-rule:evenodd;clip-rule:evenodd;fill:#142F55;}
</style>
<metadata>
	<sfw  xmlns="&ns_sfw;">
		<slices></slices>
		<sliceSourceBounds  bottomLeftOrigin="true" height="84.3" width="161.9" x="339.8" y="-367.8"></sliceSourceBounds>
	</sfw>
</metadata>
<g id="logo_tx_2_" transform="translate(0.000000, 0.996094)">
	<g id="Group-523_2_" transform="translate(1.413043, 0.000000)">
		<g id="Group-514_2_" transform="translate(0.000000, 0.968043)">
			<polygon id="Clip-513_2_" class="st0" points="-1.4,-2 120.3,-2 120.3,51.9 -1.4,51.9 			"/>
			<path id="Fill-512_2_" class="st1" d="M-1.4,28.5v6.9h6.9v16.5h7.8V35.4h5.5l6.4,16.5h9.8c2.1-8,4.9-15.4,8.3-21.9
				C52.7,12.2,67.2,2.1,84.1,2.1c15.5,0,28.8,9.6,34.4,23.3h1.8C114.4,9.5,99.3-2,81.6-2C62.1-2,45.5,10.8,35.3,29.8
				c-1.7,3.2-3.7,7.9-5.5,12.2l-5-13.5H-1.4"/>
		</g>
		<path id="Fill-515_2_" class="st2" d="M80.2,47.6c-3,0-3.3-3.9-3.3-6.5c0-2.2,0.2-6.5,3.3-6.5c3.2,0,3.4,4.3,3.4,6.5
			C83.6,43.7,83.5,47.6,80.2,47.6 M80.2,29.1c-7.1,0-11.3,4.3-11.3,12.1c0,8,4.2,12.1,11.3,12.1s11.4-4.1,11.4-12.1
			C91.6,33.3,87.3,29.1,80.2,29.1"/>
		<path id="Fill-517_2_" class="st2" d="M149.1,47.6c-3,0-3.3-3.9-3.3-6.5c0-2.2,0.2-6.5,3.3-6.5c3.2,0,3.4,4.3,3.4,6.5
			C152.5,43.7,152.4,47.6,149.1,47.6 M149.1,29.1c-7.1,0-11.3,4.3-11.3,12.1c0,8,4.2,12.1,11.3,12.1c7.1,0,11.4-4.1,11.4-12.1
			C160.5,33.3,156.2,29.1,149.1,29.1"/>
		<polygon id="Fill-519_2_" class="st2" points="68.6,29.5 47,29.5 47,36.3 53.9,36.3 53.9,52.8 61.7,52.8 61.7,36.3 68.6,36.3 		
			"/>
		<path id="Fill-521_2_" class="st2" d="M106.5,29.4l-5.2,9.2h-0.1v-9.2h-7.8v23.4h7.8v-9.9h0.1l5.4,9.9h9.4l-8-12.4l5.8-8.6
			l8.5,18.1c-9,18.1-24.3,29.3-41.5,29.3c-15.5,0-28.8-9.6-34.4-23.4h-1.8l0,0c5.8,16,21,27.5,38.7,27.5c19.2,0,35.6-12.4,45.9-31
			c3.7-6.7,6.8-14.3,9.8-22.8h-8.3c-1.4,4.4-2.8,8-4.2,11.5l-4.9-11.5L106.5,29.4"/>
	</g>
</g>
</svg>
