<?xml version="1.0" encoding="utf-8"?>
<!-- Generator: Adobe Illustrator 25.3.1, SVG Export Plug-In . SVG Version: 6.00 Build 0)  -->
<!DOCTYPE svg PUBLIC "-//W3C//DTD SVG 1.1//EN" "http://www.w3.org/Graphics/SVG/1.1/DTD/svg11.dtd" [
	<!ENTITY ns_extend "http://ns.adobe.com/Extensibility/1.0/">
	<!ENTITY ns_ai "http://ns.adobe.com/AdobeIllustrator/10.0/">
	<!ENTITY ns_graphs "http://ns.adobe.com/Graphs/1.0/">
	<!ENTITY ns_vars "http://ns.adobe.com/Variables/1.0/">
	<!ENTITY ns_imrep "http://ns.adobe.com/ImageReplacement/1.0/">
	<!ENTITY ns_sfw "http://ns.adobe.com/SaveForWeb/1.0/">
	<!ENTITY ns_custom "http://ns.adobe.com/GenericCustomNamespace/1.0/">
	<!ENTITY ns_adobe_xpath "http://ns.adobe.com/XPath/1.0/">
]>
<svg version="1.1" id="レイヤー_1" xmlns:x="&ns_extend;" xmlns:i="&ns_ai;" xmlns:graph="&ns_graphs;"
	 xmlns="http://www.w3.org/2000/svg" xmlns:xlink="http://www.w3.org/1999/xlink" x="0px" y="0px" viewBox="0 0 70.2 70.2"
	 style="enable-background:new 0 0 70.2 70.2;" xml:space="preserve">
<style type="text/css">
	.st0{fill:#8B4D5A;}
	.st1{fill:#FFFFFF;}
</style>
<metadata>
	<sfw  xmlns="&ns_sfw;">
		<slices></slices>
		<sliceSourceBounds  bottomLeftOrigin="true" height="70.2" width="70.2" x="559.9" y="-455.6"></sliceSourceBounds>
	</sfw>
</metadata>
<circle class="st0" cx="35.1" cy="35.1" r="35.1"/>
<g>
	<g>
		<g>
			<path class="st1" d="M41.4,27.7h-6.7c-0.5,0-0.9-0.4-0.9-0.9v-5c0-0.5,0.4-0.9,0.9-0.9c0.5,0,0.9,0.4,0.9,0.9v4.1h5v-4.1
				c0-0.5,0.4-0.9,0.9-0.9s0.9,0.4,0.9,0.9v5C42.3,27.3,41.9,27.7,41.4,27.7z"/>
		</g>
	</g>
	<g>
		<g>
			<g>
				<path class="st1" d="M22.1,41.4c-0.2,0-0.5-0.1-0.6-0.3l-4.8-4.8c-0.3-0.3-0.3-0.9,0-1.2c0.3-0.3,0.9-0.3,1.2,0l4.2,4.2l6.5-6.5
					L16.7,20.9c-0.3-0.3-0.3-0.9,0-1.2c0.3-0.3,0.9-0.3,1.2,0l12.5,12.5c0.3,0.3,0.3,0.9,0,1.2l-7.7,7.7
					C22.6,41.3,22.4,41.4,22.1,41.4z"/>
			</g>
			<g>
				<path class="st1" d="M41.2,51.4h-8.7c-1,0-1.9-0.4-2.6-1.1l-5.5-5.5c-0.2-0.2-0.3-0.4-0.3-0.6v-3l-1.4-1.4
					c-0.3-0.3-0.3-0.9,0-1.2c0.3-0.3,0.9-0.3,1.2,0l1.6,1.6c0.2,0.2,0.3,0.4,0.3,0.6v3l5.2,5.2c0.4,0.4,0.9,0.6,1.4,0.6h8.7
					c0.6,0,1.1-0.2,1.5-0.6c0.1-0.1,0.2-0.2,0.2-0.4c0-0.2-0.1-0.3-0.2-0.4l-4.7-4.6c0,0,0,0,0,0l-2.4-2.4c-0.2-0.2-0.3-0.6-0.2-1
					c0.2-0.5,1-0.7,1.4-0.3l2.2,2.2h1.6c0.1,0,0.2,0,0.2-0.1c0.1-0.1,0.1-0.3,0-0.5l-4.1-4.1c-0.4-0.4-0.8-0.6-1.3-0.6h-4.7
					c-0.2,0-0.5-0.1-0.6-0.3l-1.9-1.9c-0.3-0.3-0.3-0.9,0-1.2c0.3-0.3,0.9-0.3,1.2,0l1.7,1.7h4.3c1,0,1.9,0.4,2.6,1.1l4.1,4.1
					c0.8,0.8,0.8,2.1,0,2.9c-0.3,0.3-0.8,0.6-1.3,0.6l3.2,3.2c0.4,0.4,0.7,1,0.7,1.6c0,0.6-0.2,1.2-0.7,1.6
					C43.2,51,42.3,51.4,41.2,51.4z"/>
			</g>
			<g>
				<g>
					<path class="st1" d="M40.7,51.4c-0.2,0-0.4-0.1-0.6-0.3l-1.4-1.4c-0.3-0.3-0.3-0.9,0-1.2c0.3-0.3,0.9-0.3,1.2,0l1.4,1.4
						c0.3,0.3,0.3,0.9,0,1.2C41.1,51.3,40.9,51.4,40.7,51.4z"/>
				</g>
				<g>
					<path class="st1" d="M36.3,51.4c-0.2,0-0.4-0.1-0.6-0.3l-1.4-1.4c-0.3-0.3-0.3-0.9,0-1.2c0.3-0.3,0.9-0.3,1.2,0l1.4,1.4
						c0.3,0.3,0.3,0.9,0,1.2C36.8,51.3,36.5,51.4,36.3,51.4z"/>
				</g>
			</g>
			<g>
				<path class="st1" d="M52.9,48.4h-10c-0.5,0-0.9-0.4-0.9-0.9c0-0.5,0.4-0.9,0.9-0.9H52V22.7H23.2c-0.5,0-0.9-0.4-0.9-0.9
					c0-0.5,0.4-0.9,0.9-0.9h29.6c0.5,0,0.9,0.4,0.9,0.9v25.7C53.7,48,53.3,48.4,52.9,48.4z"/>
			</g>
			<g>
				<path class="st1" d="M28,48.4h-9.2c-0.5,0-0.9-0.4-0.9-0.9v-6c0-0.5,0.4-0.9,0.9-0.9s0.9,0.4,0.9,0.9v5.2H28
					c0.5,0,0.9,0.4,0.9,0.9C28.9,48,28.5,48.4,28,48.4z"/>
			</g>
		</g>
	</g>
</g>
</svg>
