<?xml version="1.0" encoding="utf-8"?>
<!-- Generator: Adobe Illustrator 24.3.0, SVG Export Plug-In . SVG Version: 6.00 Build 0)  -->
<svg version="1.1" id="レイヤー_1" xmlns="http://www.w3.org/2000/svg" xmlns:xlink="http://www.w3.org/1999/xlink" x="0px"
	 y="0px" width="49.391px" height="78.359px" viewBox="0 0 49.391 78.359" style="enable-background:new 0 0 49.391 78.359;"
	 xml:space="preserve">
<g>
	<path d="M1.862,43.706l32.791,32.742c1.208,1.274,2.716,1.911,4.527,1.911c1.811,0,3.319-0.638,4.527-1.911l3.822-3.773
		c1.241-1.241,1.861-2.749,1.861-4.526c0-1.743-0.62-3.27-1.861-4.577L23.086,39.179L47.53,14.736
		c1.241-1.241,1.861-2.749,1.861-4.526c0-1.743-0.62-3.27-1.861-4.577l-3.823-3.772C42.466,0.62,40.957,0,39.18,0
		c-1.777,0-3.286,0.62-4.527,1.861L1.862,34.603C0.621,35.91,0,37.436,0,39.18C0,40.957,0.621,42.466,1.862,43.706z"/>
</g>
</svg>
