<?xml version="1.0" encoding="utf-8"?>
<!-- Generator: Adobe Illustrator 24.3.0, SVG Export Plug-In . SVG Version: 6.00 Build 0)  -->
<svg version="1.1" id="レイヤー_1" xmlns="http://www.w3.org/2000/svg" xmlns:xlink="http://www.w3.org/1999/xlink" x="0px"
	 y="0px" width="49.4px" height="78.4px" viewBox="0 0 49.4 78.4" style="enable-background:new 0 0 49.4 78.4;"
	 xml:space="preserve">
<style type="text/css">
	.st0{fill:#FF7C80;}
</style>
<g>
	<path class="st0" d="M47.5,34.7L14.7,1.9C13.5,0.6,12,0,10.2,0S6.9,0.6,5.7,1.9L1.9,5.7C0.6,6.9,0,8.4,0,10.2
		c0,1.7,0.6,3.3,1.9,4.6l24.4,24.4L1.9,63.6C0.6,64.9,0,66.4,0,68.1c0,1.7,0.6,3.3,1.9,4.6l3.8,3.8c1.2,1.2,2.8,1.9,4.5,1.9
		s3.3-0.6,4.5-1.9l32.8-32.7c1.2-1.3,1.9-2.8,1.9-4.6C49.4,37.4,48.8,35.9,47.5,34.7z"/>
</g>
</svg>
