<?xml version="1.0" encoding="utf-8"?>
<!-- Generator: Adobe Illustrator 24.3.0, SVG Export Plug-In . SVG Version: 6.00 Build 0)  -->
<svg version="1.1" id="レイヤー_1" xmlns="http://www.w3.org/2000/svg" xmlns:xlink="http://www.w3.org/1999/xlink" x="0px"
	 y="0px" width="78.359px" height="49.391px" viewBox="0 0 78.359 49.391" style="enable-background:new 0 0 78.359 49.391;"
	 xml:space="preserve">
<g>
	<path d="M43.706,47.529l32.742-32.791c1.274-1.208,1.911-2.716,1.911-4.527s-0.638-3.319-1.911-4.527l-3.773-3.822
		c-1.241-1.241-2.749-1.861-4.526-1.861c-1.743,0-3.27,0.62-4.577,1.861L39.179,26.305L14.736,1.861C13.495,0.62,11.987,0,10.21,0
		C8.466,0,6.94,0.62,5.633,1.861L1.861,5.684C0.62,6.924,0,8.434,0,10.21c0,1.777,0.62,3.286,1.861,4.527l32.742,32.791
		c1.308,1.241,2.833,1.862,4.577,1.862C40.957,49.391,42.466,48.77,43.706,47.529z"/>
</g>
</svg>
