<?xml version="1.0" encoding="utf-8"?>
<!-- Generator: Adobe Illustrator 24.3.0, SVG Export Plug-In . SVG Version: 6.00 Build 0)  -->
<svg version="1.1" id="レイヤー_1" xmlns="http://www.w3.org/2000/svg" xmlns:xlink="http://www.w3.org/1999/xlink" x="0px"
	 y="0px" width="49.391px" height="78.359px" viewBox="0 0 49.391 78.359" style="enable-background:new 0 0 49.391 78.359;"
	 xml:space="preserve">
<style type="text/css">
	.st0{fill:#FFFFFF;}
</style>
<g>
	<path class="st0" d="M47.529,34.653L14.738,1.911C13.53,0.637,12.022,0,10.211,0S6.892,0.638,5.684,1.911L1.862,5.684
		C0.621,6.924,0.001,8.432,0.001,10.21c0,1.743,0.62,3.27,1.861,4.577L26.305,39.18L1.861,63.623C0.62,64.864,0,66.372,0,68.149
		c0,1.743,0.62,3.27,1.861,4.577l3.823,3.772c1.241,1.241,2.75,1.861,4.527,1.861c1.777,0,3.286-0.62,4.527-1.861l32.791-32.742
		c1.241-1.308,1.862-2.833,1.862-4.577C49.391,37.402,48.77,35.893,47.529,34.653z"/>
</g>
</svg>
