<?xml version="1.0" encoding="utf-8"?>
<!-- Generator: Adobe Illustrator 24.3.0, SVG Export Plug-In . SVG Version: 6.00 Build 0)  -->
<svg version="1.1" id="レイヤー_1" xmlns="http://www.w3.org/2000/svg" xmlns:xlink="http://www.w3.org/1999/xlink" x="0px"
	 y="0px" width="85.095px" height="70.913px" viewBox="0 0 85.095 70.913" style="enable-background:new 0 0 85.095 70.913;"
	 xml:space="preserve">
<style type="text/css">
	.st0{fill:none;stroke:#FFFFFF;stroke-width:3.5456;stroke-linecap:round;stroke-linejoin:round;}
	.st1{fill:none;stroke:#FFFFFF;stroke-width:3.5456;stroke-linecap:round;}
	.st2{fill:none;stroke:#FFFFFF;stroke-width:3.5456;stroke-linejoin:round;}
</style>
<g>
	<path class="st0" d="M17.728,33.683c5.318,0,30.138,0,47.866-21.274"/>
	<polyline class="st1" points="65.594,19.501 65.594,12.41 58.503,12.41 	"/>
	<g>
		<polyline class="st0" points="78.004,53.184 83.322,62.048 83.322,69.14 1.773,69.14 1.773,62.048 7.091,53.184 		"/>
		<polyline class="st0" points="33.683,69.14 33.683,65.594 37.229,62.048 47.94,62.048 51.412,65.594 51.412,69.14 		"/>
		<path class="st0" d="M78.004,3.546v49.639H7.091V3.535c0-0.973,0.789-1.762,1.762-1.762h33.694h33.683
			C77.21,1.773,78.004,2.567,78.004,3.546z"/>
	</g>
	<line class="st2" x1="21.274" y1="44.32" x2="21.274" y2="47.866"/>
	<line class="st2" x1="35.456" y1="40.775" x2="35.456" y2="47.866"/>
	<line class="st2" x1="49.639" y1="37.229" x2="49.639" y2="47.866"/>
	<line class="st2" x1="62.048" y1="33.683" x2="62.048" y2="47.866"/>
</g>
</svg>
