<?xml version="1.0" encoding="utf-8"?>
<!-- Generator: Adobe Illustrator 24.3.0, SVG Export Plug-In . SVG Version: 6.00 Build 0)  -->
<svg version="1.1" id="レイヤー_1" xmlns="http://www.w3.org/2000/svg" xmlns:xlink="http://www.w3.org/1999/xlink" x="0px"
	 y="0px" width="106.664px" height="92.406px" viewBox="0 0 106.664 92.406" style="enable-background:new 0 0 106.664 92.406;"
	 xml:space="preserve">
<style type="text/css">
	.st0{fill:#FFFFFF;}
</style>
<path class="st0" d="M96.62,0H10.045C4.506,0,0,4.506,0,10.045v52.093c0,5.539,4.506,10.044,10.045,10.044h30.07v8.55h-3.764
	c-2.851,0-5.171,2.32-5.171,5.171v1.331c0,2.852,2.32,5.171,5.171,5.171h34.723c2.852,0,5.171-2.32,5.171-5.171v-1.331
	c0-2.851-2.32-5.171-5.171-5.171h-4.525v-8.55H96.62c5.539,0,10.044-4.506,10.044-10.044V10.045C106.664,4.506,102.159,0,96.62,0z
	 M10.045,4H96.62c3.333,0,6.044,2.712,6.044,6.045v46.611H4V10.045C4,6.712,6.712,4,10.045,4z M72.246,85.903v1.331
	c0,0.646-0.525,1.171-1.171,1.171H36.351c-0.646,0-1.171-0.525-1.171-1.171v-1.331c0-0.646,0.525-1.171,1.171-1.171h5.764h22.434
	h6.525C71.72,84.732,72.246,85.258,72.246,85.903z M62.549,80.732H44.115v-8.55h18.434V80.732z M96.62,68.182H64.549H42.115h-32.07
	C6.712,68.182,4,65.471,4,62.138v-1.482h98.664v1.482C102.664,65.471,99.953,68.182,96.62,68.182z"/>
</svg>
