<?xml version="1.0" encoding="utf-8"?>
<!-- Generator: Adobe Illustrator 24.3.0, SVG Export Plug-In . SVG Version: 6.00 Build 0)  -->
<svg version="1.1" id="レイヤー_1" xmlns="http://www.w3.org/2000/svg" xmlns:xlink="http://www.w3.org/1999/xlink" x="0px"
	 y="0px" width="93.9px" height="78.561px" viewBox="0 0 93.9 78.561" style="enable-background:new 0 0 93.9 78.561;"
	 xml:space="preserve">
<style type="text/css">
	.st0{fill:#FFFFFF;}
</style>
<path id="XMLID_414_" class="st0" d="M91.804,1.478c-1.684-1.457-4.023-1.873-6.107-1.087l-82.168,31
	c-2.22,0.837-3.604,2.911-3.527,5.282c0.077,2.371,1.594,4.35,3.864,5.041l20.183,6.143l6.659,22.77
	c0.093,0.319,0.265,0.609,0.5,0.843c0,0,2.759,2.591,2.757,2.506c0.216,0.234,0.475,0.432,0.772,0.582
	c0.39,0.198,0.81,0.294,1.227,0.294c0.641,0,1.275-0.229,1.782-0.673l12.213-10.686L68.547,77.24
	c1.178,0.871,2.577,1.321,3.995,1.321c0.787,0,1.579-0.139,2.341-0.421c2.136-0.791,3.714-2.588,4.222-4.808v0
	c3.478-15.201,11.406-51.196,14.654-65.967C94.236,5.191,93.488,2.935,91.804,1.478z M35.722,49.917
	c-0.41,0.34-0.662,0.828-0.707,1.352c0,0.001,0,0.001,0,0.002l-1.316,15.485l-5.719-19.556l37.514-21.999L35.722,49.917z
	 M37.462,69.173l1.193-14.039l8.049,5.952L37.462,69.173z M89.896,6.516C86.649,21.281,78.724,57.264,75.249,72.45v0
	c-0.212,0.929-0.847,1.651-1.74,1.981c-0.893,0.331-1.845,0.196-2.611-0.371L40.189,51.349l36.559-30.35
	c0.035-0.029,0.068-0.058,0.101-0.089c1.183-1.127,1.345-2.834,0.385-4.06c-1.001-1.278-2.776-1.541-4.235-0.633L25.395,44.132
	L5.019,37.93c-0.954-0.29-1.055-1.135-1.063-1.386c-0.008-0.252,0.037-1.101,0.97-1.453l82.168-31
	c1.059-0.4,1.838,0.131,2.123,0.378C89.502,4.716,90.139,5.41,89.896,6.516z"/>
</svg>
