<?xml version="1.0" encoding="utf-8"?>
<!-- Generator: Adobe Illustrator 24.3.0, SVG Export Plug-In . SVG Version: 6.00 Build 0)  -->
<svg version="1.1" id="レイヤー_1" xmlns="http://www.w3.org/2000/svg" xmlns:xlink="http://www.w3.org/1999/xlink" x="0px"
	 y="0px" width="99.051px" height="86.26px" viewBox="0 0 99.051 86.26" style="enable-background:new 0 0 99.051 86.26;"
	 xml:space="preserve">
<style type="text/css">
	.st0{fill:#FFFFFF;}
</style>
<g>
	<path class="st0" d="M97.419,67.659H1.632c-0.747,0-1.399-0.508-1.582-1.232c-0.183-0.725,0.15-1.481,0.807-1.835l10.694-5.769
		l0.006-57.191C11.557,0.73,12.288,0,13.189,0h72.86c0.901,0,1.632,0.731,1.632,1.632v57.104l10.533,5.866
		c0.649,0.362,0.972,1.116,0.785,1.836C98.812,67.157,98.162,67.659,97.419,67.659z M8.093,64.396h83.043l-5.881-3.276
		c-0.517-0.288-0.838-0.834-0.838-1.425V3.263H14.82l-0.006,56.533c0,0.6-0.329,1.151-0.857,1.436L8.093,64.396z"/>
	<path class="st0" d="M1.638,86.26c-0.901,0-1.632-0.731-1.632-1.632V66.136c0-0.901,0.73-1.632,1.632-1.632
		s1.632,0.731,1.632,1.632v18.492C3.27,85.529,2.54,86.26,1.638,86.26z"/>
	<path class="st0" d="M97.361,86.26c-0.901,0-1.632-0.731-1.632-1.632V66.136c0-0.901,0.73-1.632,1.632-1.632
		c0.901,0,1.632,0.731,1.632,1.632v18.492C98.993,85.529,98.263,86.26,97.361,86.26z"/>
	<path class="st0" d="M13.205,61.335c-0.394,0-0.789-0.142-1.103-0.429c-0.664-0.609-0.709-1.641-0.099-2.305l7.77-8.47
		c0.309-0.337,0.745-0.529,1.202-0.529H78.44c0.458,0,0.894,0.192,1.203,0.529l7.661,8.362c0.609,0.664,0.563,1.697-0.101,2.305
		c-0.664,0.609-1.696,0.564-2.305-0.101l-7.176-7.832H21.693l-7.285,7.942C14.086,61.158,13.646,61.335,13.205,61.335z"/>
	<path class="st0" d="M21.001,52.974c-0.901,0-1.632-0.731-1.632-1.632V8.485c0-0.901,0.73-1.632,1.632-1.632
		c0.901,0,1.632,0.731,1.632,1.632v42.858C22.632,52.244,21.902,52.974,21.001,52.974z"/>
	<path class="st0" d="M78.652,52.974c-0.901,0-1.632-0.731-1.632-1.632V8.485c0-0.901,0.73-1.632,1.632-1.632
		c0.901,0,1.632,0.731,1.632,1.632v42.858C80.284,52.244,79.553,52.974,78.652,52.974z"/>
	<g>
		<path class="st0" d="M49.637,41.831c-6.487,0-11.765-5.278-11.765-11.765c0-3.89,1.92-7.524,5.136-9.721
			c0.744-0.508,1.759-0.317,2.268,0.427c0.508,0.744,0.317,1.759-0.427,2.268c-2.325,1.588-3.713,4.215-3.713,7.026
			c0,4.688,3.814,8.502,8.502,8.502c4.688,0,8.502-3.814,8.502-8.502c0-2.358-0.992-4.63-2.722-6.235
			c-0.661-0.613-0.699-1.645-0.087-2.306c0.613-0.661,1.645-0.7,2.306-0.087c2.393,2.22,3.766,5.364,3.766,8.627
			C61.402,36.553,56.124,41.831,49.637,41.831z"/>
		<path class="st0" d="M44.279,13.379c-0.901,0-1.632-0.731-1.632-1.632V11.53c0-0.901,0.73-1.632,1.632-1.632
			c0.901,0,1.632,0.731,1.632,1.632v0.218C45.91,12.649,45.18,13.379,44.279,13.379z"/>
		<path class="st0" d="M44.279,28.173c-0.901,0-1.632-0.731-1.632-1.632V16.316c0-0.901,0.73-1.632,1.632-1.632
			c0.901,0,1.632,0.731,1.632,1.632v10.225C45.91,27.443,45.18,28.173,44.279,28.173z"/>
		<path class="st0" d="M50.153,23.604c-0.901,0-1.632-0.731-1.632-1.632v-6.962c0-0.901,0.73-1.632,1.632-1.632
			c0.901,0,1.632,0.731,1.632,1.632v6.962C51.784,22.874,51.054,23.604,50.153,23.604z"/>
		<path class="st0" d="M55.809,26.65c-0.901,0-1.632-0.731-1.632-1.632V8.049c0-0.901,0.73-1.632,1.632-1.632
			s1.632,0.731,1.632,1.632v16.969C57.441,25.92,56.71,26.65,55.809,26.65z"/>
	</g>
</g>
</svg>
