<?xml version="1.0" encoding="utf-8"?>
<!-- Generator: Adobe Illustrator 25.3.1, SVG Export Plug-In . SVG Version: 6.00 Build 0)  -->
<!DOCTYPE svg PUBLIC "-//W3C//DTD SVG 1.1//EN" "http://www.w3.org/Graphics/SVG/1.1/DTD/svg11.dtd" [
	<!ENTITY ns_extend "http://ns.adobe.com/Extensibility/1.0/">
	<!ENTITY ns_ai "http://ns.adobe.com/AdobeIllustrator/10.0/">
	<!ENTITY ns_graphs "http://ns.adobe.com/Graphs/1.0/">
	<!ENTITY ns_vars "http://ns.adobe.com/Variables/1.0/">
	<!ENTITY ns_imrep "http://ns.adobe.com/ImageReplacement/1.0/">
	<!ENTITY ns_sfw "http://ns.adobe.com/SaveForWeb/1.0/">
	<!ENTITY ns_custom "http://ns.adobe.com/GenericCustomNamespace/1.0/">
	<!ENTITY ns_adobe_xpath "http://ns.adobe.com/XPath/1.0/">
]>
<svg version="1.1" id="レイヤー_1" xmlns:x="&ns_extend;" xmlns:i="&ns_ai;" xmlns:graph="&ns_graphs;"
	 xmlns="http://www.w3.org/2000/svg" xmlns:xlink="http://www.w3.org/1999/xlink" x="0px" y="0px" viewBox="0 0 75.7 75.7"
	 style="enable-background:new 0 0 75.7 75.7;" xml:space="preserve">
<metadata>
	<sfw  xmlns="&ns_sfw;">
		<slices></slices>
		<sliceSourceBounds  bottomLeftOrigin="true" height="75.7" width="75.7" x="260.2" y="-483.8"></sliceSourceBounds>
	</sfw>
</metadata>
<g>
	<g>
		<g>
			<path d="M73.5,10.3c-1.1-1.1-2.9-1.1-4,0L35.3,44.5L22.9,31.1c-1.1-1.2-2.9-1.2-4-0.2c-1.2,1.1-1.2,2.9-0.2,4l14.4,15.6
				c0.5,0.6,1.3,0.9,2,0.9c0,0,0,0,0.1,0c0.8,0,1.5-0.3,2-0.8l36.3-36.2C74.6,13.3,74.6,11.5,73.5,10.3z"/>
		</g>
	</g>
	<g>
		<g>
			<path d="M72.8,35c-1.6,0-2.9,1.3-2.9,2.9C70,55.5,55.5,70,37.8,70C20.1,70,5.7,55.5,5.7,37.8c0-17.7,14.4-32.1,32.1-32.1
				c1.6,0,2.9-1.3,2.9-2.9c0-1.6-1.3-2.9-2.9-2.9C17,0,0,17,0,37.8c0,20.9,17,37.8,37.8,37.8c20.9,0,37.8-17,37.8-37.8
				C75.7,36.3,74.4,35,72.8,35z"/>
		</g>
	</g>
</g>
</svg>
