<?xml version="1.0" encoding="utf-8"?>
<!-- Generator: Adobe Illustrator 24.3.0, SVG Export Plug-In . SVG Version: 6.00 Build 0)  -->
<svg version="1.1" id="レイヤー_1" xmlns="http://www.w3.org/2000/svg" xmlns:xlink="http://www.w3.org/1999/xlink" x="0px"
	 y="0px" width="99.864px" height="94.457px" viewBox="0 0 99.864 94.457" style="enable-background:new 0 0 99.864 94.457;"
	 xml:space="preserve">
<style type="text/css">
	.st0{fill:none;stroke:#000000;stroke-width:9.7844;stroke-miterlimit:10;}
	.st1{fill:none;stroke:#FF7C80;stroke-width:9.7844;stroke-linecap:round;stroke-miterlimit:10;}
	.st2{fill:#FF7C80;}
</style>
<path class="st0" d="M44.684,63.446"/>
<path class="st1" d="M67.72,10.197c-6.067-3.377-13.05-5.304-20.491-5.304c-23.382,0-42.337,18.955-42.337,42.336
	s18.955,42.336,42.337,42.336c23.381,0,42.336-18.955,42.336-42.336c0-5.296-1.016-10.344-2.792-15.017
	c-0.074,0.07-0.149,0.14-0.225,0.21"/>
<path class="st2" d="M98.06,12.962c-2.446-2.416-6.229-2.234-8.672,0.047c-1.886,1.761-3.773,3.521-5.659,5.282
	c-4.345,4.055-8.69,8.11-13.035,12.166c-4.833,4.51-9.665,9.021-14.498,13.531c-2.301,2.148-4.602,4.295-6.903,6.443
	c-2.126-2.273-4.252-4.547-6.377-6.82c-1.03-1.102-2.06-2.203-3.09-3.305c-2.28-2.438-6.394-2.261-8.672,0.046
	c-2.414,2.445-2.236,6.231,0.047,8.672c3.465,3.706,6.93,7.411,10.396,11.117c1.03,1.102,2.06,2.203,3.09,3.305
	c1.064,1.138,2.732,1.763,4.269,1.773c1.697,0.011,3.182-0.68,4.404-1.82c1.886-1.76,3.773-3.521,5.659-5.282
	c4.345-4.055,8.69-8.11,13.035-12.166c4.833-4.511,9.665-9.021,14.498-13.531c3.35-3.126,6.699-6.253,10.049-9.379
	c0.503-0.469,1.006-0.939,1.508-1.408C100.547,19.356,100.365,15.239,98.06,12.962z"/>
</svg>
