<?xml version="1.0" encoding="utf-8"?>
<!-- Generator: Adobe Illustrator 25.3.1, SVG Export Plug-In . SVG Version: 6.00 Build 0)  -->
<!DOCTYPE svg PUBLIC "-//W3C//DTD SVG 1.1//EN" "http://www.w3.org/Graphics/SVG/1.1/DTD/svg11.dtd" [
	<!ENTITY ns_extend "http://ns.adobe.com/Extensibility/1.0/">
	<!ENTITY ns_ai "http://ns.adobe.com/AdobeIllustrator/10.0/">
	<!ENTITY ns_graphs "http://ns.adobe.com/Graphs/1.0/">
	<!ENTITY ns_vars "http://ns.adobe.com/Variables/1.0/">
	<!ENTITY ns_imrep "http://ns.adobe.com/ImageReplacement/1.0/">
	<!ENTITY ns_sfw "http://ns.adobe.com/SaveForWeb/1.0/">
	<!ENTITY ns_custom "http://ns.adobe.com/GenericCustomNamespace/1.0/">
	<!ENTITY ns_adobe_xpath "http://ns.adobe.com/XPath/1.0/">
]>
<svg version="1.1" id="レイヤー_1" xmlns:x="&ns_extend;" xmlns:i="&ns_ai;" xmlns:graph="&ns_graphs;"
	 xmlns="http://www.w3.org/2000/svg" xmlns:xlink="http://www.w3.org/1999/xlink" x="0px" y="0px" viewBox="0 0 100.3 100.3"
	 style="enable-background:new 0 0 100.3 100.3;" xml:space="preserve">
<metadata>
	<sfw  xmlns="&ns_sfw;">
		<slices></slices>
		<sliceSourceBounds  bottomLeftOrigin="true" height="100.3" width="100.3" x="247.9" y="-470.6"></sliceSourceBounds>
	</sfw>
</metadata>
<g>
	<path d="M50.1,0C22.5,0,0,22.5,0,50.1c0,27.6,22.5,50.1,50.1,50.1c27.6,0,50.1-22.5,50.1-50.1C100.3,22.5,77.8,0,50.1,0z M50.1,94
		C25.9,94,6.3,74.3,6.3,50.1c0-24.2,19.7-43.9,43.9-43.9C74.3,6.3,94,25.9,94,50.1C94,74.3,74.3,94,50.1,94z"/>
	<path d="M68.9,47H53.3V21.9c0-1.7-1.4-3.1-3.1-3.1c-1.7,0-3.1,1.4-3.1,3.1v28.2c0,1.7,1.4,3.1,3.1,3.1h18.8c1.7,0,3.1-1.4,3.1-3.1
		C72.1,48.4,70.7,47,68.9,47z"/>
</g>
</svg>
