<?xml version="1.0" encoding="utf-8"?>
<!-- Generator: Adobe Illustrator 24.3.0, SVG Export Plug-In . SVG Version: 6.00 Build 0)  -->
<svg version="1.1" id="レイヤー_1" xmlns="http://www.w3.org/2000/svg" xmlns:xlink="http://www.w3.org/1999/xlink" x="0px"
	 y="0px" width="117.426px" height="117.426px" viewBox="0 0 117.426 117.426" style="enable-background:new 0 0 117.426 117.426;"
	 xml:space="preserve">
<g>
	<g>
		<path d="M58.713,117.426C26.339,117.426,0,91.087,0,58.713C0,26.338,26.339,0,58.713,0c32.375,0,58.713,26.338,58.713,58.713
			C117.426,91.087,91.088,117.426,58.713,117.426z M58.713,12.464c-25.502,0-46.249,20.747-46.249,46.249
			c0,25.502,20.747,46.249,46.249,46.249c25.501,0,46.249-20.747,46.249-46.249C104.962,33.211,84.215,12.464,58.713,12.464z"/>
	</g>
	<path d="M67.527,58.713L81.16,45.08c2.434-2.434,2.434-6.38,0-8.814c-2.433-2.433-6.38-2.433-8.813,0L58.713,49.9L45.08,36.266
		c-2.433-2.433-6.38-2.433-8.813,0c-2.434,2.434-2.434,6.38,0,8.814L49.9,58.713L36.266,72.347c-2.434,2.433-2.434,6.38,0,8.813
		c1.217,1.217,2.812,1.825,4.407,1.825c1.595,0,3.19-0.608,4.407-1.825l13.634-13.634L72.347,81.16
		c1.217,1.217,2.812,1.825,4.407,1.825c1.595,0,3.19-0.608,4.407-1.825c2.434-2.433,2.434-6.38,0-8.813L67.527,58.713z"/>
</g>
</svg>
