<?xml version="1.0" encoding="utf-8"?>
<!-- Generator: Adobe Illustrator 24.3.0, SVG Export Plug-In . SVG Version: 6.00 Build 0)  -->
<svg version="1.1" id="レイヤー_1" xmlns="http://www.w3.org/2000/svg" xmlns:xlink="http://www.w3.org/1999/xlink" x="0px"
	 y="0px" width="86.021px" height="66.377px" viewBox="0 0 86.021 66.377" style="enable-background:new 0 0 86.021 66.377;"
	 xml:space="preserve">
<style type="text/css">
	.st0{fill:#FFFFFF;stroke:#FFFFFF;stroke-miterlimit:10;}
</style>
<g>
	<g>
		<path class="st0" d="M40.894,51.882c-1.731,0-3.358-0.674-4.582-1.898c-2.527-2.527-2.527-6.638,0-9.164l12.926-12.927
			c0.506-0.505,1.325-0.505,1.831,0c0.506,0.506,0.506,1.325,0,1.831L38.143,42.65c-1.517,1.517-1.517,3.986,0,5.503
			c0.735,0.735,1.712,1.14,2.751,1.14c1.039,0,2.017-0.405,2.752-1.14l16.267-16.267c0.506-0.505,1.325-0.505,1.831,0
			c0.506,0.506,0.506,1.325,0,1.831L45.477,49.984C44.253,51.208,42.625,51.882,40.894,51.882z"/>
		<path class="st0" d="M18.76,37.382c-0.327,0-0.655-0.123-0.907-0.371c-0.51-0.501-0.518-1.32-0.017-1.831l17.395-17.724
			c3.399-3.395,7.904-5.26,12.695-5.26h7.736c3.16,0,6.13-1.23,8.364-3.465l7.853-7.853c0.506-0.505,1.325-0.505,1.831,0
			c0.506,0.506,0.506,1.325,0,1.831l-7.853,7.853c-2.723,2.723-6.344,4.223-10.195,4.223h-7.736c-4.1,0-7.955,1.596-10.856,4.493
			L19.684,36.994C19.43,37.252,19.095,37.382,18.76,37.382z"/>
		<path class="st0" d="M61.265,37.052h-3.032c-0.715,0-1.295-0.58-1.295-1.295c0-0.715,0.58-1.295,1.295-1.295h3.032
			c3.776,0,7.325-1.47,9.995-4.14l7.632-7.632c0.506-0.505,1.325-0.505,1.831,0c0.506,0.506,0.506,1.325,0,1.831l-7.632,7.632
			C69.932,35.312,65.733,37.052,61.265,37.052z"/>
		<path class="st0" d="M8.681,65.258c-0.715,0-1.295-0.58-1.295-1.295V45.382c0-0.715,0.58-1.295,1.295-1.295h22.551
			c0.715,0,1.295,0.58,1.295,1.295c0,0.715-0.58,1.295-1.295,1.295H9.976v17.287C9.976,64.678,9.396,65.258,8.681,65.258z"/>
		<path class="st0" d="M78.128,65.258c-0.715,0-1.295-0.58-1.295-1.295V46.676H55.126c-0.715,0-1.295-0.58-1.295-1.295
			c0-0.715,0.58-1.295,1.295-1.295h23.001c0.715,0,1.295,0.58,1.295,1.295v18.581C79.422,64.678,78.843,65.258,78.128,65.258z"/>
		<path class="st0" d="M84.227,65.877H1.795c-0.535,0-1.015-0.329-1.208-0.828c-0.193-0.499-0.058-1.065,0.338-1.425l6.74-6.117
			c0.529-0.481,1.348-0.441,1.829,0.089c0.48,0.529,0.441,1.348-0.089,1.829l-4.257,3.864h76.035l-3.814-3.959
			c-0.496-0.515-0.481-1.334,0.034-1.83c0.515-0.496,1.334-0.481,1.83,0.034l5.926,6.152c0.36,0.374,0.462,0.927,0.259,1.405
			C85.215,65.567,84.746,65.877,84.227,65.877z"/>
	</g>
	<path class="st0" d="M41.593,37.915H14.149c-0.715,0-1.295-0.58-1.295-1.295c0-0.715,0.58-1.295,1.295-1.295h27.444
		c0.715,0,1.295,0.58,1.295,1.295C42.888,37.336,42.308,37.915,41.593,37.915z"/>
	<path class="st0" d="M73.698,37.915H57.645c-0.715,0-1.295-0.58-1.295-1.295c0-0.715,0.58-1.295,1.295-1.295h16.052
		c0.715,0,1.295,0.58,1.295,1.295C74.992,37.336,74.413,37.915,73.698,37.915z"/>
	<path class="st0" d="M32.618,42.23H10.524c-0.715,0-1.295-0.58-1.295-1.295c0-0.715,0.58-1.295,1.295-1.295h22.094
		c0.715,0,1.295,0.58,1.295,1.295C33.912,41.651,33.333,42.23,32.618,42.23z"/>
	<path class="st0" d="M76.287,42.23H58.681c-0.715,0-1.295-0.58-1.295-1.295c0-0.715,0.58-1.295,1.295-1.295h17.606
		c0.715,0,1.295,0.58,1.295,1.295C77.581,41.651,77.002,42.23,76.287,42.23z"/>
</g>
</svg>
