<?xml version="1.0" encoding="utf-8"?>
<!-- Generator: Adobe Illustrator 24.3.0, SVG Export Plug-In . SVG Version: 6.00 Build 0)  -->
<svg version="1.1" id="レイヤー_1" xmlns="http://www.w3.org/2000/svg" xmlns:xlink="http://www.w3.org/1999/xlink" x="0px"
	 y="0px" width="74.803px" height="81.446px" viewBox="0 0 74.803 81.446" style="enable-background:new 0 0 74.803 81.446;"
	 xml:space="preserve">
<style type="text/css">
	.st0{fill:none;stroke:#FFFFFF;stroke-width:4.4;stroke-linecap:round;stroke-linejoin:round;stroke-miterlimit:10;}
</style>
<g>
	<g>
		<path class="st0" d="M61.262,19.893v6.664c-1.676-0.566-3.472-0.872-5.341-0.872h-1.256v-5.792
			c0-6.129-4.967-11.101-11.096-11.101H31.233c-6.129,0-11.102,4.972-11.102,11.101v5.792h-1.251c-1.868,0-3.664,0.306-5.341,0.872
			v-6.664C13.54,10.12,21.46,2.2,31.233,2.2H43.57C53.342,2.2,61.262,10.12,61.262,19.893z"/>
	</g>
	<g>
		<path class="st0" d="M20.132,25.685h34.534h1.256c1.868,0,3.664,0.306,5.341,0.872c6.591,2.227,11.34,8.465,11.34,15.809v20.2
			c0,9.212-7.468,16.681-16.681,16.681H18.881C9.668,79.246,2.2,71.777,2.2,62.565v-20.2c0-7.344,4.749-13.582,11.34-15.809"/>
	</g>
	<g>
		<path class="st0" d="M43.275,45.378c0-3.469-3.007-6.236-6.557-5.836c-2.648,0.298-4.8,2.41-5.142,5.052
			c-0.326,2.519,0.947,4.774,2.941,5.9l-1.906,9.744c-0.323,1.649,0.94,3.182,2.62,3.182h1.706h0.927h1.706
			c1.68,0,2.943-1.533,2.62-3.182l-1.906-9.744C42.068,49.485,43.275,47.574,43.275,45.378z"/>
	</g>
</g>
</svg>
