<?xml version="1.0" encoding="utf-8"?>
<!-- Generator: Adobe Illustrator 24.3.0, SVG Export Plug-In . SVG Version: 6.00 Build 0)  -->
<svg version="1.1" id="レイヤー_1" xmlns="http://www.w3.org/2000/svg" xmlns:xlink="http://www.w3.org/1999/xlink" x="0px"
	 y="0px" width="83.738px" height="69.452px" viewBox="0 0 83.738 69.452" style="enable-background:new 0 0 83.738 69.452;"
	 xml:space="preserve">
<style type="text/css">
	.st0{fill:#FFFFFF;stroke:#FFFFFF;stroke-width:1.3948;stroke-miterlimit:10;}
</style>
<g>
	<g>
		<g>
			<g>
				<path class="st0" d="M9.877,68.755c-0.686,0-1.243-0.556-1.243-1.243V1.94c0-0.686,0.556-1.242,1.243-1.242
					c0.686,0,1.242,0.556,1.242,1.242v65.573C11.12,68.199,10.563,68.755,9.877,68.755z"/>
			</g>
			<g>
				<path class="st0" d="M19.943,68.755H6.454c-3.175,0-5.757-2.591-5.757-5.775V6.473c0-3.185,2.582-5.775,5.757-5.775h13.488
					c0.686,0,1.242,0.556,1.242,1.242c0,0.686-0.556,1.243-1.242,1.243H6.454c-1.804,0-3.272,1.476-3.272,3.29V62.98
					c0,1.815,1.468,3.29,3.272,3.29h13.488c0.686,0,1.242,0.556,1.242,1.242C21.185,68.199,20.629,68.755,19.943,68.755z"/>
			</g>
			<g>
				<path class="st0" d="M40.591,68.755H15.816c-0.686,0-1.242-0.556-1.242-1.243c0-0.686,0.556-1.242,1.242-1.242h24.775
					c1.815,0,3.291-1.476,3.291-3.29V6.473c0-1.815-1.477-3.29-3.291-3.29H15.816c-0.686,0-1.242-0.556-1.242-1.243
					c0-0.686,0.556-1.242,1.242-1.242h24.775c3.185,0,5.776,2.591,5.776,5.775V62.98C46.368,66.164,43.777,68.755,40.591,68.755z"/>
			</g>
			<g>
				<path class="st0" d="M17.631,63.587c-0.686,0-1.242-0.556-1.242-1.243V7.111c0-0.686,0.556-1.243,1.242-1.243
					c0.686,0,1.243,0.556,1.243,1.243v55.234C18.873,63.031,18.317,63.587,17.631,63.587z"/>
			</g>
		</g>
		<g>
			<g>
				<g>
					<path class="st0" d="M61.332,27.816c-6.589,0-12.682-1.031-16.713-2.828c-0.447-0.199-0.736-0.644-0.736-1.134v-8.474
						c0-0.49,0.289-0.935,0.736-1.134c4.057-1.809,10.149-2.847,16.713-2.847c10.523,0,21.708,2.88,21.708,8.218
						C83.04,24.942,71.855,27.816,61.332,27.816z M46.368,23.027c3.719,1.469,9.111,2.303,14.965,2.303
						c11.91,0,19.223-3.328,19.223-5.714c0-2.394-7.313-5.733-19.223-5.733c-5.743,0-11.252,0.862-14.965,2.322V23.027z"/>
				</g>
				<g>
					<path class="st0" d="M61.313,39.231c-4.343,0-8.499-0.447-12.018-1.293c-1.849-0.447-3.425-0.964-4.684-1.54
						c-0.626-0.284-0.9-1.021-0.615-1.645c0.284-0.624,1.023-0.899,1.645-0.614c1.118,0.509,2.543,0.975,4.236,1.385
						c3.333,0.8,7.287,1.222,11.438,1.222c4.176,0,8.145-0.423,11.479-1.223c5.362-1.28,7.761-3.178,7.761-4.49
						c0-0.686,0.556-1.243,1.242-1.243c0.686,0,1.243,0.556,1.243,1.243c0,2.966-3.433,5.418-9.669,6.906
						C69.852,38.784,65.682,39.231,61.313,39.231z"/>
				</g>
				<g>
					<path class="st0" d="M61.313,50.648c-4.343,0-8.499-0.447-12.018-1.293c-1.757-0.425-3.329-0.941-4.671-1.534
						c-0.629-0.276-0.913-1.01-0.636-1.638c0.279-0.628,1.012-0.914,1.638-0.634c1.192,0.525,2.66,1.006,4.249,1.391
						c3.333,0.8,7.287,1.223,11.438,1.223c4.176,0,8.145-0.423,11.479-1.223c5.36-1.298,7.761-3.2,7.761-4.51
						c0-0.686,0.556-1.242,1.242-1.242c0.686,0,1.243,0.556,1.243,1.242c0,2.957-3.433,5.416-9.664,6.924
						C69.852,50.2,65.682,50.648,61.313,50.648z"/>
				</g>
				<g>
					<path class="st0" d="M61.313,62.064c-6.57,0-12.654-1.038-16.696-2.848c-0.626-0.28-0.906-1.015-0.626-1.641
						c0.281-0.626,1.018-0.909,1.641-0.626c3.678,1.647,9.54,2.63,15.68,2.63c11.921,0,19.24-3.339,19.24-5.733
						c0-0.686,0.556-1.242,1.242-1.242c0.686,0,1.243,0.556,1.243,1.242C83.039,59.183,71.845,62.064,61.313,62.064z"/>
				</g>
				<g>
					<path class="st0" d="M81.796,55.088c-0.686,0-1.242-0.556-1.242-1.242V19.614c0-0.686,0.556-1.242,1.242-1.242
						c0.686,0,1.243,0.556,1.243,1.242v34.232C83.039,54.532,82.482,55.088,81.796,55.088z"/>
				</g>
			</g>
		</g>
	</g>
</g>
</svg>
