<?xml version="1.0" encoding="utf-8"?>
<!-- Generator: Adobe Illustrator 24.3.0, SVG Export Plug-In . SVG Version: 6.00 Build 0)  -->
<svg version="1.1" id="レイヤー_1" xmlns="http://www.w3.org/2000/svg" xmlns:xlink="http://www.w3.org/1999/xlink" x="0px"
	 y="0px" width="73.765px" height="80.342px" viewBox="0 0 73.765 80.342" style="enable-background:new 0 0 73.765 80.342;"
	 xml:space="preserve">
<style type="text/css">
	.st0{fill:#FFFFFF;}
</style>
<g>
	<path class="st0" d="M36.882,41.153c11.346,0,20.577-9.231,20.577-20.576C57.459,9.231,48.229,0,36.882,0
		S16.305,9.231,16.305,20.577C16.305,31.923,25.536,41.153,36.882,41.153z M36.882,5.658c8.226,0,14.919,6.693,14.919,14.919
		s-6.693,14.918-14.919,14.918c-8.227,0-14.919-6.692-14.919-14.918S28.656,5.658,36.882,5.658z"/>
	<path class="st0" d="M54.406,44.414H19.358C8.684,44.414,0,53.099,0,63.773v13.74c0,1.563,1.266,2.829,2.829,2.829
		c1.563,0,2.829-1.266,2.829-2.829v-13.74c0-7.554,6.146-13.701,13.701-13.701h35.047c7.555,0,13.701,6.146,13.701,13.701v13.74
		c0,1.563,1.266,2.829,2.829,2.829c1.563,0,2.829-1.266,2.829-2.829v-13.74C73.765,53.099,65.08,44.414,54.406,44.414z"/>
</g>
</svg>
