<?xml version="1.0" encoding="utf-8"?>
<!-- Generator: Adobe Illustrator 24.3.0, SVG Export Plug-In . SVG Version: 6.00 Build 0)  -->
<svg version="1.1" id="レイヤー_1" xmlns="http://www.w3.org/2000/svg" xmlns:xlink="http://www.w3.org/1999/xlink" x="0px"
	 y="0px" width="96.972px" height="77.725px" viewBox="0 0 96.972 77.725" style="enable-background:new 0 0 96.972 77.725;"
	 xml:space="preserve">
<style type="text/css">
	.st0{fill:none;stroke:#FFFFFF;stroke-width:4;stroke-linecap:round;stroke-linejoin:round;stroke-miterlimit:10;}
</style>
<g>
	<g>
		<path class="st0" d="M52.465,37.177l20.299,20.299c1.457,1.457,1.457,3.82,0,5.278l0,0c-1.458,1.458-3.821,1.458-5.278,0
			l-7.917-7.917"/>
		<path class="st0" d="M59.57,54.837l7.917,7.917c1.457,1.458,1.457,3.82,0,5.278l0,0c-1.457,1.457-3.82,1.457-5.278,0l-7.917-7.917
			"/>
		<path class="st0" d="M54.292,60.115l7.917,7.917c1.458,1.457,1.458,3.82,0,5.278l0,0c-1.457,1.458-3.82,1.458-5.278,0
			l-7.917-7.917"/>
		<line class="st0" x1="22.097" y1="49.038" x2="16.577" y2="43.518"/>
		<path class="st0" d="M49.013,65.394l3.963,3.963c1.443,1.443,1.443,3.825,0,5.269c-0.733,0.733-1.695,1.1-2.657,1.1
			c-0.939,0-1.901-0.367-2.634-1.1l-4.467-4.467"/>
	</g>
	<path class="st0" d="M43.996,69.357l-0.779,0.802l-4.49,4.467c-0.733,0.733-1.695,1.1-2.657,1.1c-0.939,0-1.901-0.366-2.634-1.1
		c-1.443-1.443-1.443-3.825,0-5.269l4.49-4.49l0.802-0.802c0.733-0.71,1.672-1.077,2.635-1.077c0.962,0,1.901,0.367,2.634,1.077
		C45.462,65.531,45.462,67.891,43.996,69.357z"/>
	<g>
		<path class="st0" d="M42.347,60.446l-3.619,3.619l-0.802,0.802l-4.49,4.49c-0.71,0.733-1.672,1.077-2.634,1.077
			c-0.939,0-1.901-0.344-2.634-1.077c-1.466-1.466-1.466-3.825,0-5.291l4.49-4.467l4.398-4.421c0.733-0.733,1.695-1.1,2.634-1.1
			c0.962,0,1.924,0.367,2.657,1.1C43.79,56.643,43.79,59.003,42.347,60.446z"/>
		<path class="st0" d="M37.055,55.177l-4.398,4.421l-4.49,4.467c-0.733,0.733-1.695,1.1-2.634,1.1c-0.962,0-1.924-0.367-2.634-1.1
			c-1.466-1.443-1.466-3.803,0-5.269l4.467-4.49l4.421-4.421c0.733-0.733,1.695-1.077,2.634-1.077c0.962,0,1.924,0.344,2.634,1.077
			C38.521,51.352,38.521,53.711,37.055,55.177z"/>
		<path class="st0" d="M31.764,49.886l-4.398,4.421l-4.49,4.467c-0.733,0.733-1.695,1.1-2.634,1.1c-0.962,0-1.901-0.367-2.634-1.1
			c-1.466-1.443-1.466-3.802,0-5.268l4.49-4.467l4.398-4.421c0.733-0.733,1.695-1.1,2.634-1.1c0.962,0,1.901,0.366,2.634,1.1
			C33.23,46.06,33.23,48.42,31.764,49.886z"/>
	</g>
	<path class="st0" d="M60.604,23.878c-3.458-3.457-7.082-6.296-11.991-1.387l-7.076,7.076c-4.363,4.363-4.363,11.438,0,15.801l0,0
		c1.662,1.662,4.356,1.662,6.018,0l6.511-6.511l1.392,1.311l14.388,14.388l9.945-10.369L60.604,23.878z"/>
	<path class="st0" d="M62.373,2.931l-6.06,6.06c-1.242,1.242-1.242,3.255,0,4.496l27.172,27.172c1.242,1.242,3.255,1.242,4.496,0
		l6.06-6.06c1.242-1.242,1.242-3.255,0-4.496L66.869,2.931C65.628,1.69,63.615,1.69,62.373,2.931z"/>
	<path class="st0" d="M34.599,2.931l6.06,6.06c1.242,1.242,1.242,3.255,0,4.496L13.487,40.659c-1.242,1.242-3.255,1.242-4.496,0
		l-6.06-6.06c-1.242-1.242-1.242-3.255,0-4.496L30.103,2.931C31.345,1.69,33.358,1.69,34.599,2.931z"/>
	<line class="st0" x1="41.117" y1="19.122" x2="46.549" y2="24.554"/>
</g>
</svg>
