<?xml version="1.0" encoding="utf-8"?>
<!-- Generator: Adobe Illustrator 24.3.0, SVG Export Plug-In . SVG Version: 6.00 Build 0)  -->
<svg version="1.1" id="レイヤー_1" xmlns="http://www.w3.org/2000/svg" xmlns:xlink="http://www.w3.org/1999/xlink" x="0px"
	 y="0px" width="68.7px" height="68.7px" viewBox="0 0 68.7 68.7" style="enable-background:new 0 0 68.7 68.7;"
	 xml:space="preserve">
<style type="text/css">
	.st0{fill:#444444;}
</style>
<path class="st0" d="M46.8,34.3l19.3-19.3c3.4-3.4,3.4-9,0-12.5c-3.4-3.4-9-3.4-12.5,0L34.3,21.9L15.1,2.6c-3.4-3.4-9-3.4-12.5,0
	c-3.4,3.4-3.4,9,0,12.5l19.3,19.3L2.6,53.6c-3.4,3.4-3.4,9,0,12.5c1.7,1.7,4,2.6,6.2,2.6c2.3,0,4.5-0.9,6.2-2.6l19.3-19.3l19.3,19.3
	c1.7,1.7,4,2.6,6.2,2.6s4.5-0.9,6.2-2.6c3.4-3.4,3.4-9,0-12.5L46.8,34.3z"/>
</svg>
