<?xml version="1.0" encoding="utf-8"?>
<!-- Generator: Adobe Illustrator 25.3.1, SVG Export Plug-In . SVG Version: 6.00 Build 0)  -->
<!DOCTYPE svg PUBLIC "-//W3C//DTD SVG 1.1//EN" "http://www.w3.org/Graphics/SVG/1.1/DTD/svg11.dtd" [
	<!ENTITY ns_extend "http://ns.adobe.com/Extensibility/1.0/">
	<!ENTITY ns_ai "http://ns.adobe.com/AdobeIllustrator/10.0/">
	<!ENTITY ns_graphs "http://ns.adobe.com/Graphs/1.0/">
	<!ENTITY ns_vars "http://ns.adobe.com/Variables/1.0/">
	<!ENTITY ns_imrep "http://ns.adobe.com/ImageReplacement/1.0/">
	<!ENTITY ns_sfw "http://ns.adobe.com/SaveForWeb/1.0/">
	<!ENTITY ns_custom "http://ns.adobe.com/GenericCustomNamespace/1.0/">
	<!ENTITY ns_adobe_xpath "http://ns.adobe.com/XPath/1.0/">
]>
<svg version="1.1" id="レイヤー_1" xmlns:x="&ns_extend;" xmlns:i="&ns_ai;" xmlns:graph="&ns_graphs;"
	 xmlns="http://www.w3.org/2000/svg" xmlns:xlink="http://www.w3.org/1999/xlink" x="0px" y="0px" viewBox="0 0 71.1 71.1"
	 style="enable-background:new 0 0 71.1 71.1;" xml:space="preserve">
<style type="text/css">
	.st0{fill:#1877F2;}
	.st1{fill:#FFFFFF;}
</style>
<metadata>
	<sfw  xmlns="&ns_sfw;">
		<slices></slices>
		<sliceSourceBounds  bottomLeftOrigin="true" height="71.1" width="71.1" x="262.5" y="-456"></sliceSourceBounds>
	</sfw>
</metadata>
<g>
	<path class="st0" d="M71.1,35.5C71.1,15.9,55.2,0,35.5,0S0,15.9,0,35.5C0,53.3,13,68,30,70.6V45.8h-9V35.5h9v-7.8
		c0-8.9,5.3-13.8,13.4-13.8c3.9,0,8,0.7,8,0.7v8.7h-4.5c-4.4,0-5.8,2.7-5.8,5.5v6.7h9.9l-1.6,10.3h-8.3v24.8
		C58.1,68,71.1,53.3,71.1,35.5z"/>
	<path class="st1" d="M49.4,45.8l1.6-10.3h-9.9v-6.7c0-2.8,1.4-5.5,5.8-5.5h4.5v-8.7c0,0-4.1-0.7-8-0.7c-8.1,0-13.4,4.9-13.4,13.8
		v7.8h-9v10.3h9v24.8c1.8,0.3,3.7,0.4,5.6,0.4c1.9,0,3.7-0.1,5.6-0.4V45.8H49.4z"/>
</g>
</svg>
