<?xml version="1.0" encoding="utf-8"?>
<!-- Generator: Adobe Illustrator 25.3.1, SVG Export Plug-In . SVG Version: 6.00 Build 0)  -->
<!DOCTYPE svg PUBLIC "-//W3C//DTD SVG 1.1//EN" "http://www.w3.org/Graphics/SVG/1.1/DTD/svg11.dtd" [
	<!ENTITY ns_extend "http://ns.adobe.com/Extensibility/1.0/">
	<!ENTITY ns_ai "http://ns.adobe.com/AdobeIllustrator/10.0/">
	<!ENTITY ns_graphs "http://ns.adobe.com/Graphs/1.0/">
	<!ENTITY ns_vars "http://ns.adobe.com/Variables/1.0/">
	<!ENTITY ns_imrep "http://ns.adobe.com/ImageReplacement/1.0/">
	<!ENTITY ns_sfw "http://ns.adobe.com/SaveForWeb/1.0/">
	<!ENTITY ns_custom "http://ns.adobe.com/GenericCustomNamespace/1.0/">
	<!ENTITY ns_adobe_xpath "http://ns.adobe.com/XPath/1.0/">
]>
<svg version="1.1" id="レイヤー_1" xmlns:x="&ns_extend;" xmlns:i="&ns_ai;" xmlns:graph="&ns_graphs;"
	 xmlns="http://www.w3.org/2000/svg" xmlns:xlink="http://www.w3.org/1999/xlink" x="0px" y="0px" viewBox="0 0 64 63.6"
	 style="enable-background:new 0 0 64 63.6;" xml:space="preserve">
<style type="text/css">
	.st0{fill:#AEAEAE;}
</style>
<metadata>
	<sfw  xmlns="&ns_sfw;">
		<slices></slices>
		<sliceSourceBounds  bottomLeftOrigin="true" height="63.6" width="64" x="402.9" y="-329.5"></sliceSourceBounds>
	</sfw>
</metadata>
<path class="st0" d="M64,32C64,14.3,49.7,0,32,0S0,14.3,0,32c0,16,11.7,29.2,27,31.6V41.3h-8.1V32H27V25c0-8,4.8-12.5,12.1-12.5
	c3.5,0,7.2,0.6,7.2,0.6V21h-4c-4,0-5.2,2.5-5.2,5v6h8.9l-1.4,9.3H37v22.4C52.3,61.2,64,48,64,32z"/>
</svg>
