<?xml version="1.0" encoding="utf-8"?>
<!-- Generator: Adobe Illustrator 24.3.0, SVG Export Plug-In . SVG Version: 6.00 Build 0)  -->
<svg version="1.1" id="レイヤー_1" xmlns="http://www.w3.org/2000/svg" xmlns:xlink="http://www.w3.org/1999/xlink" x="0px"
	 y="0px" width="139.471px" height="79.8px" viewBox="0 0 139.471 79.8" style="enable-background:new 0 0 139.471 79.8;"
	 xml:space="preserve">
<style type="text/css">
	.st0{fill:#00A73C;}
	.st1{fill:#231815;}
	.st2{fill:#FFFFFF;}
</style>
<g>
	<g>
		<g>
			<g>
				<g>
					<rect class="st0" width="120.755" height="78.81"/>
				</g>
			</g>
		</g>
		<g>
			<g>
				<g>
					<path class="st1" d="M124.379,72.25c0,4.159,3.378,7.549,7.542,7.549c4.16,0,7.55-3.39,7.55-7.549
						c0-4.163-3.39-7.543-7.55-7.543C127.757,64.707,124.379,68.088,124.379,72.25 M125.252,72.253c0-3.68,2.991-6.676,6.669-6.676
						c3.673,0,6.673,2.996,6.673,6.676c0,3.672-2.991,6.668-6.673,6.668C128.244,78.921,125.252,75.925,125.252,72.253z"/>
				</g>
			</g>
		</g>
		<path class="st1" d="M135.595,77.135h-1.448l-2.928-4.532h-1.286v4.532h-1.161v-9.971h2.823c0.946,0,1.695,0.228,2.244,0.688
			c0.55,0.458,0.825,1.098,0.825,1.919c0,0.607-0.2,1.151-0.599,1.625c-0.404,0.469-0.957,0.79-1.657,0.962L135.595,77.135
			 M129.933,71.596h1.462c0.614,0,1.113-0.167,1.495-0.499c0.379-0.336,0.571-0.749,0.571-1.256c0-1.112-0.68-1.667-2.036-1.667
			h-1.493V71.596z"/>
	</g>
	<g>
		<g>
			<g>
				<g>
					<g>
						<g>
							<g>
								<path class="st2" d="M30.342,61.129c-6.623,0-14.848-5.062-14.848-15.509c0-8.107,8.029-14.582,14.848-18.457
									c6.815,3.875,14.845,10.35,14.845,18.457C45.187,56.068,36.966,61.129,30.342,61.129 M75.839,45.445
									c0-8.109,8.026-14.588,14.844-18.46c6.82,3.872,14.843,10.351,14.843,18.46c0,10.442-8.218,15.506-14.843,15.506
									C84.058,60.952,75.839,55.887,75.839,45.445 M120.739,12.264c-12.271,0-23.143,3.059-30.527,6.897
									c-7.385-3.838-17.584-6.897-29.85-6.897c-12.271,0-22.468,3.059-29.852,6.897c-7.383-3.838-18.24-6.897-30.506-6.897v6.9
									c7.251,0,16.051,1.356,22.96,4.357c-7.46,4.989-14.842,12.55-14.842,22.093c0,12.613,10.74,22.249,22.389,22.249
									c11.647,0,21.866-9.635,21.866-22.249c0-9.543-6.855-17.104-14.319-22.093c6.906-3.001,15.051-4.357,22.305-4.357
									s15.397,1.356,22.303,4.357c-7.46,4.989-14.319,12.55-14.319,22.093c0,12.613,10.22,22.249,21.866,22.249
									c11.648,0,22.224-9.635,22.224-22.249c0-9.543-7.214-17.104-14.678-22.093c6.91-3.001,15.729-4.357,22.981-4.357V12.264z"/>
							</g>
						</g>
					</g>
				</g>
			</g>
		</g>
	</g>
</g>
</svg>
