<?xml version="1.0" encoding="utf-8"?>
<!-- Generator: Adobe Illustrator 25.3.1, SVG Export Plug-In . SVG Version: 6.00 Build 0)  -->
<!DOCTYPE svg PUBLIC "-//W3C//DTD SVG 1.1//EN" "http://www.w3.org/Graphics/SVG/1.1/DTD/svg11.dtd" [
	<!ENTITY ns_extend "http://ns.adobe.com/Extensibility/1.0/">
	<!ENTITY ns_ai "http://ns.adobe.com/AdobeIllustrator/10.0/">
	<!ENTITY ns_graphs "http://ns.adobe.com/Graphs/1.0/">
	<!ENTITY ns_vars "http://ns.adobe.com/Variables/1.0/">
	<!ENTITY ns_imrep "http://ns.adobe.com/ImageReplacement/1.0/">
	<!ENTITY ns_sfw "http://ns.adobe.com/SaveForWeb/1.0/">
	<!ENTITY ns_custom "http://ns.adobe.com/GenericCustomNamespace/1.0/">
	<!ENTITY ns_adobe_xpath "http://ns.adobe.com/XPath/1.0/">
]>
<svg version="1.1" id="レイヤー_1" xmlns:x="&ns_extend;" xmlns:i="&ns_ai;" xmlns:graph="&ns_graphs;"
	 xmlns="http://www.w3.org/2000/svg" xmlns:xlink="http://www.w3.org/1999/xlink" x="0px" y="0px" viewBox="0 0 64.3 65.4"
	 style="enable-background:new 0 0 64.3 65.4;" xml:space="preserve">
<style type="text/css">
	.st0{fill:#AEAEAE;}
</style>
<metadata>
	<sfw  xmlns="&ns_sfw;">
		<slices></slices>
		<sliceSourceBounds  bottomLeftOrigin="true" height="65.4" width="64.3" x="388.6" y="-330.6"></sliceSourceBounds>
	</sfw>
</metadata>
<g>
	<path class="st0" d="M45.8,0H18.5C8.3,0,0,8.3,0,18.5v28.4c0,10.2,8.3,18.5,18.5,18.5h27.4c10.2,0,18.5-8.3,18.5-18.5V18.5
		C64.3,8.3,56.1,0,45.8,0z M6.6,18.5c0-6.6,5.4-11.9,11.9-11.9h27.4c6.6,0,11.9,5.4,11.9,11.9v28.4c0,6.6-5.4,11.9-11.9,11.9H18.5
		c-6.6,0-11.9-5.4-11.9-11.9V18.5z"/>
	<path class="st0" d="M32.2,49.6C41.5,49.6,49,42,49,32.7s-7.6-16.9-16.9-16.9c-9.3,0-16.9,7.6-16.9,16.9S22.9,49.6,32.2,49.6z
		 M32.2,21.1c6.4,0,11.6,5.2,11.6,11.6s-5.2,11.6-11.6,11.6c-6.4,0-11.6-5.2-11.6-11.6S25.8,21.1,32.2,21.1z"/>
	<ellipse class="st0" cx="49.5" cy="15.4" rx="3.8" ry="3.8"/>
</g>
</svg>
