<?xml version="1.0" encoding="utf-8"?>
<!-- Generator: Adobe Illustrator 25.3.1, SVG Export Plug-In . SVG Version: 6.00 Build 0)  -->
<!DOCTYPE svg PUBLIC "-//W3C//DTD SVG 1.1//EN" "http://www.w3.org/Graphics/SVG/1.1/DTD/svg11.dtd" [
	<!ENTITY ns_extend "http://ns.adobe.com/Extensibility/1.0/">
	<!ENTITY ns_ai "http://ns.adobe.com/AdobeIllustrator/10.0/">
	<!ENTITY ns_graphs "http://ns.adobe.com/Graphs/1.0/">
	<!ENTITY ns_vars "http://ns.adobe.com/Variables/1.0/">
	<!ENTITY ns_imrep "http://ns.adobe.com/ImageReplacement/1.0/">
	<!ENTITY ns_sfw "http://ns.adobe.com/SaveForWeb/1.0/">
	<!ENTITY ns_custom "http://ns.adobe.com/GenericCustomNamespace/1.0/">
	<!ENTITY ns_adobe_xpath "http://ns.adobe.com/XPath/1.0/">
]>
<svg version="1.1" id="レイヤー_1" xmlns:x="&ns_extend;" xmlns:i="&ns_ai;" xmlns:graph="&ns_graphs;"
	 xmlns="http://www.w3.org/2000/svg" xmlns:xlink="http://www.w3.org/1999/xlink" x="0px" y="0px" viewBox="0 0 59 44.2"
	 style="enable-background:new 0 0 59 44.2;" xml:space="preserve">
<style type="text/css">
	.st0{fill:#D2D2D2;}
</style>
<metadata>
	<sfw  xmlns="&ns_sfw;">
		<slices></slices>
		<sliceSourceBounds  bottomLeftOrigin="true" height="44.2" width="59" x="268.5" y="-442.6"></sliceSourceBounds>
	</sfw>
</metadata>
<g>
	<g>
		<g>
			<path class="st0" d="M1.2,3.6c8.1,6.9,22.3,18.9,26.5,22.7c0.6,0.5,1.2,0.8,1.8,0.8c0.6,0,1.2-0.3,1.8-0.8
				c4.2-3.8,18.4-15.8,26.5-22.7c0.5-0.4,0.6-1.2,0.2-1.7C57,0.7,55.6,0,54.1,0H4.9C3.4,0,2,0.7,1.1,1.9C0.7,2.4,0.7,3.2,1.2,3.6z"
				/>
			<path class="st0" d="M58.3,7.3c-0.4-0.2-0.9-0.1-1.3,0.2c-9,7.6-20.4,17.4-24,20.6c-2,1.8-4.8,1.8-6.9,0
				C22.2,24.6,9.4,13.7,2,7.5C1.7,7.2,1.1,7.1,0.7,7.3C0.3,7.5,0,7.9,0,8.4v30.9c0,2.7,2.2,4.9,4.9,4.9h49.1c2.7,0,4.9-2.2,4.9-4.9
				V8.4C59,7.9,58.7,7.5,58.3,7.3z"/>
		</g>
	</g>
</g>
</svg>
