<?xml version="1.0" encoding="utf-8"?>
<!-- Generator: Adobe Illustrator 25.3.1, SVG Export Plug-In . SVG Version: 6.00 Build 0)  -->
<!DOCTYPE svg PUBLIC "-//W3C//DTD SVG 1.1//EN" "http://www.w3.org/Graphics/SVG/1.1/DTD/svg11.dtd" [
	<!ENTITY ns_extend "http://ns.adobe.com/Extensibility/1.0/">
	<!ENTITY ns_ai "http://ns.adobe.com/AdobeIllustrator/10.0/">
	<!ENTITY ns_graphs "http://ns.adobe.com/Graphs/1.0/">
	<!ENTITY ns_vars "http://ns.adobe.com/Variables/1.0/">
	<!ENTITY ns_imrep "http://ns.adobe.com/ImageReplacement/1.0/">
	<!ENTITY ns_sfw "http://ns.adobe.com/SaveForWeb/1.0/">
	<!ENTITY ns_custom "http://ns.adobe.com/GenericCustomNamespace/1.0/">
	<!ENTITY ns_adobe_xpath "http://ns.adobe.com/XPath/1.0/">
]>
<svg version="1.1" id="レイヤー_1" xmlns:x="&ns_extend;" xmlns:i="&ns_ai;" xmlns:graph="&ns_graphs;"
	 xmlns="http://www.w3.org/2000/svg" xmlns:xlink="http://www.w3.org/1999/xlink" x="0px" y="0px" viewBox="0 0 70.2 70.2"
	 style="enable-background:new 0 0 70.2 70.2;" xml:space="preserve">
<style type="text/css">
	.st0{fill:#8B4D5A;}
	.st1{fill:#FFFFFF;}
</style>
<metadata>
	<sfw  xmlns="&ns_sfw;">
		<slices></slices>
		<sliceSourceBounds  bottomLeftOrigin="true" height="70.2" width="70.2" x="559.9" y="-455.6"></sliceSourceBounds>
	</sfw>
</metadata>
<circle class="st0" cx="35.1" cy="35.1" r="35.1"/>
<g>
	<path class="st1" d="M32.1,44.2c-1,0-1.9-0.4-2.6-1.1c-0.7-0.7-1.1-1.6-1.1-2.6c0-1,0.4-1.9,1.1-2.6l7.5-7.5c0.3-0.3,0.7-0.3,1,0
		c0.3,0.3,0.3,0.7,0,1l-7.5,7.5c-0.4,0.4-0.7,1-0.7,1.6c0,0.6,0.2,1.2,0.7,1.6c0.4,0.4,1,0.7,1.6,0.7c0.6,0,1.2-0.2,1.6-0.7l9.4-9.4
		c0.3-0.3,0.7-0.3,1,0c0.3,0.3,0.3,0.7,0,1l-9.4,9.4C34,43.8,33.1,44.2,32.1,44.2z"/>
	<path class="st1" d="M23.8,39c-0.3,0-0.6-0.2-0.7-0.5l-0.6-3.1c-0.4-1.9,0.1-3.9,1.5-5.4l4.9-5.5c0,0,0,0,0,0c1.9-1.9,4.5-3,7.3-3
		h4.5c1.8,0,3.6-0.7,4.9-2l4.5-4.5c0.3-0.3,0.7-0.3,1,0c0.3,0.3,0.3,0.7,0,1l-4.5,4.5c-1.6,1.6-3.6,2.4-5.8,2.4h-4.5
		c-2.4,0-4.6,0.9-6.3,2.6L25,30.9c-1,1.1-1.4,2.7-1.1,4.2l0.6,3.1c0.1,0.4-0.2,0.7-0.5,0.8C23.9,39,23.9,39,23.8,39z"/>
	<path class="st1" d="M43.9,35.6h-1.7c-0.4,0-0.7-0.3-0.7-0.7s0.3-0.7,0.7-0.7h1.7c2.2,0,4.3-0.9,5.8-2.4l4.4-4.4
		c0.3-0.3,0.7-0.3,1,0c0.3,0.3,0.3,0.7,0,1l-4.4,4.4C48.9,34.6,46.4,35.6,43.9,35.6z"/>
	<path class="st1" d="M46.3,52.2H14.5c-0.3,0-0.5-0.2-0.6-0.4c-0.1-0.3,0-0.6,0.2-0.7l3.9-3.4c0.1-0.1,0.3-0.2,0.4-0.2h3.3
		c0.4,0,0.7,0.3,0.7,0.7s-0.3,0.7-0.7,0.7h-3.1l-2.4,2.1h28.4l-2.1-2.1h-6.1c-0.4,0-0.7-0.3-0.7-0.7s0.3-0.7,0.7-0.7h6.4
		c0.2,0,0.4,0.1,0.5,0.2l3.4,3.4c0.2,0.2,0.3,0.5,0.1,0.7C46.8,52.1,46.6,52.2,46.3,52.2z"/>
	<path class="st1" d="M29.1,49.3c-4,0-7.2-3.2-7.2-7.2c0-4,3.2-7.2,7.2-7.2c1.1,0,2.3,0.3,3.3,0.8c0.3,0.2,0.5,0.6,0.3,0.9
		c-0.2,0.3-0.6,0.5-0.9,0.3c-0.8-0.4-1.7-0.6-2.7-0.6c-3.2,0-5.9,2.6-5.9,5.9c0,3.2,2.6,5.9,5.9,5.9c3.2,0,5.9-2.6,5.9-5.9
		c0-0.2,0-0.3,0-0.5c0-0.4,0.2-0.7,0.6-0.7c0.4,0,0.7,0.2,0.7,0.6c0,0.2,0,0.4,0,0.6C36.4,46.1,33.1,49.3,29.1,49.3z"/>
	<path class="st1" d="M36,41.6c-0.3,0-0.6-0.2-0.7-0.6c-0.1-0.4,0.2-0.7,0.6-0.8l3.7-0.5c1.1-0.2,2.1-0.7,2.9-1.4l1.5-1.5
		c0.3-0.3,0.7-0.3,1,0c0.3,0.3,0.3,0.7,0,1l-1.5,1.5c-1,1-2.3,1.6-3.7,1.8L36,41.6C36.1,41.5,36,41.6,36,41.6z"/>
</g>
</svg>
