<?xml version="1.0" encoding="utf-8"?>
<!-- Generator: Adobe Illustrator 25.3.1, SVG Export Plug-In . SVG Version: 6.00 Build 0)  -->
<!DOCTYPE svg PUBLIC "-//W3C//DTD SVG 1.1//EN" "http://www.w3.org/Graphics/SVG/1.1/DTD/svg11.dtd" [
	<!ENTITY ns_extend "http://ns.adobe.com/Extensibility/1.0/">
	<!ENTITY ns_ai "http://ns.adobe.com/AdobeIllustrator/10.0/">
	<!ENTITY ns_graphs "http://ns.adobe.com/Graphs/1.0/">
	<!ENTITY ns_vars "http://ns.adobe.com/Variables/1.0/">
	<!ENTITY ns_imrep "http://ns.adobe.com/ImageReplacement/1.0/">
	<!ENTITY ns_sfw "http://ns.adobe.com/SaveForWeb/1.0/">
	<!ENTITY ns_custom "http://ns.adobe.com/GenericCustomNamespace/1.0/">
	<!ENTITY ns_adobe_xpath "http://ns.adobe.com/XPath/1.0/">
]>
<svg version="1.1" id="レイヤー_1" xmlns:x="&ns_extend;" xmlns:i="&ns_ai;" xmlns:graph="&ns_graphs;"
	 xmlns="http://www.w3.org/2000/svg" xmlns:xlink="http://www.w3.org/1999/xlink" x="0px" y="0px" viewBox="0 0 76.2 76.2"
	 style="enable-background:new 0 0 76.2 76.2;" xml:space="preserve">
<style type="text/css">
	.st0{fill:#FFFFFF;}
</style>
<metadata>
	<sfw  xmlns="&ns_sfw;">
		<slices></slices>
		<sliceSourceBounds  bottomLeftOrigin="true" height="76.2" width="76.2" x="556.9" y="-458.6"></sliceSourceBounds>
	</sfw>
</metadata>
<ellipse cx="38.1" cy="38.1" rx="38.1" ry="38.1"/>
<path class="st0" d="M18.7,26.1c0.2,5.6,4,11,7.2,15.4c2.9,4,6.3,7.6,10.2,10.7c2.5,2,5,3.8,7.9,5.2c1.7,0.8,2.8,1.5,4.8,0.8
	c3-0.8,9.9-4.4,8.8-8.3c-0.6-2-3-3.9-4.5-5.2c-1.8-1.5-5.1-4.2-7.2-1.7c-1.3,1.2-2.6,4.1-4.6,4.3c-2.2,0.2-4.1-2.3-5.5-3.7
	c-2.2-2.2-4.2-4.7-6-7.3c-1.7-2.7,0.4-3.9,2.5-5.3c0.9-0.7,2.1-1.3,2.5-2.4c0.8-2.1-1.2-4.6-2.2-6.2c-1.1-1.5-2.3-2.8-3.7-4.1
	c-1.8-1.6-3.8-0.3-5.2,0.9C21.3,21.1,19.5,23.5,18.7,26.1z"/>
</svg>
