<?xml version="1.0" encoding="utf-8"?>
<!-- Generator: Adobe Illustrator 24.3.0, SVG Export Plug-In . SVG Version: 6.00 Build 0)  -->
<svg version="1.1" id="レイヤー_1" xmlns="http://www.w3.org/2000/svg" xmlns:xlink="http://www.w3.org/1999/xlink" x="0px"
	 y="0px" width="73.703px" height="73.703px" viewBox="0 0 73.703 73.703" style="enable-background:new 0 0 73.703 73.703;"
	 xml:space="preserve">
<style type="text/css">
	.st0{fill:none;stroke:#701D07;stroke-width:3;stroke-linecap:round;stroke-linejoin:round;stroke-miterlimit:10;}
</style>
<g>
	<path class="st0" d="M1.507,34.009l0.836,10.994c0.102,1.34,1.271,2.344,2.611,2.242l4.691-0.357
		c0.772,2.119,1.78,4.118,2.989,5.967l-3.046,3.546c-0.876,1.02-0.759,2.556,0.261,3.431l8.365,7.183
		c1.019,0.876,2.556,0.759,3.431-0.261l2.951-3.436c2.041,0.974,4.209,1.717,6.465,2.199l0.337,4.435
		c0.102,1.34,1.271,2.344,2.611,2.242l10.994-0.836c1.34-0.102,2.344-1.271,2.242-2.611l-0.322-4.232
		c2.25-0.787,4.369-1.838,6.322-3.114l3.157,2.711c1.02,0.876,2.556,0.759,3.431-0.261l7.183-8.365
		c0.875-1.02,0.759-2.556-0.261-3.431l-3.047-2.617c1.028-2.153,1.798-4.445,2.277-6.834l3.968-0.302
		c1.34-0.102,2.344-1.271,2.242-2.611L71.36,28.7c-0.102-1.34-1.271-2.344-2.611-2.242l-3.968,0.302
		c-0.834-2.289-1.943-4.439-3.284-6.412l2.617-3.047c0.875-1.019,0.759-2.556-0.261-3.431l-8.365-7.183
		c-1.02-0.876-2.556-0.759-3.431,0.261l-2.711,3.157c-2.123-0.966-4.376-1.685-6.72-2.123L42.304,3.75
		c-0.102-1.34-1.271-2.344-2.611-2.242L28.7,2.343c-1.34,0.102-2.344,1.271-2.242,2.611l0.337,4.435
		c-2.157,0.818-4.187,1.879-6.058,3.151l-3.436-2.951c-1.02-0.876-2.556-0.759-3.431,0.261l-7.183,8.365
		c-0.876,1.02-0.759,2.556,0.261,3.431l3.546,3.046c-0.916,2.011-1.61,4.139-2.053,6.351L3.75,31.4
		C2.409,31.5,1.405,32.669,1.507,34.009z M21.937,37.985c-0.626-8.237,5.544-15.422,13.781-16.048s15.422,5.544,16.048,13.781
		S46.222,51.14,37.985,51.766S22.563,46.222,21.937,37.985z"/>
</g>
</svg>
