<?xml version="1.0" encoding="utf-8"?>
<!-- Generator: Adobe Illustrator 24.3.0, SVG Export Plug-In . SVG Version: 6.00 Build 0)  -->
<svg version="1.1" id="レイヤー_1" xmlns="http://www.w3.org/2000/svg" xmlns:xlink="http://www.w3.org/1999/xlink" x="0px"
	 y="0px" width="77.102px" height="54.913px" viewBox="0 0 77.102 54.913" style="enable-background:new 0 0 77.102 54.913;"
	 xml:space="preserve">
<style type="text/css">
	.st0{fill:#701D07;}
</style>
<g id="XMLID_434_">
	<path id="XMLID_457_" class="st0" d="M49.109,42.01c-4.773,0-9.589,1.201-9.589,3.887v5.129c0,2.685,4.816,3.887,9.589,3.887
		s9.589-1.201,9.589-3.887v-5.129C58.699,43.211,53.883,42.01,49.109,42.01z M49.109,44.346c4.348,0,6.755,1.03,7.208,1.55
		c-0.453,0.52-2.861,1.55-7.208,1.55s-6.755-1.03-7.208-1.55C42.354,45.377,44.762,44.346,49.109,44.346z M49.109,52.576
		c-4.602,0-7.03-1.155-7.252-1.55v-2.444c1.848,0.818,4.556,1.202,7.252,1.202c2.7,0,5.413-0.385,7.261-1.206l0.007,2.362
		C56.14,51.422,53.712,52.576,49.109,52.576z"/>
	<path id="XMLID_443_" class="st0" d="M9.589,17.127C4.816,17.127,0,18.329,0,21.014v29.859c0,2.686,4.816,3.887,9.589,3.887
		s9.589-1.201,9.589-3.887V21.014C19.179,18.329,14.362,17.127,9.589,17.127z M16.855,45.66c-0.244,0.483-2.672,1.633-7.266,1.633
		c-4.602,0-7.03-1.155-7.253-1.549v-2.139c1.848,0.817,4.556,1.201,7.253,1.201c2.702,0,5.416-0.386,7.265-1.207L16.855,45.66z
		 M16.852,40.84c-0.251,0.483-2.676,1.629-7.263,1.629c-4.603,0-7.031-1.155-7.253-1.549v-2.292
		c1.848,0.818,4.556,1.202,7.253,1.202c2.701,0,5.414-0.386,7.262-1.206L16.852,40.84z M16.85,35.866
		c-0.258,0.486-2.681,1.628-7.261,1.628c-4.603,0-7.031-1.155-7.253-1.55v-2.291c1.848,0.818,4.556,1.202,7.253,1.202
		c2.7,0,5.411-0.385,7.259-1.205L16.85,35.866z M16.847,30.892c-0.265,0.487-2.686,1.625-7.258,1.625
		c-4.603,0-7.031-1.154-7.253-1.55v-2.292c1.848,0.817,4.556,1.201,7.253,1.201c2.698,0,5.409-0.385,7.257-1.203L16.847,30.892z
		 M16.845,25.919c-0.272,0.487-2.691,1.621-7.255,1.621c-4.603,0-7.031-1.155-7.253-1.549v-2.292
		C4.184,24.516,6.893,24.9,9.589,24.9c2.697,0,5.406-0.384,7.254-1.202L16.845,25.919z M9.589,19.464c4.347,0,6.754,1.03,7.208,1.55
		c-0.455,0.52-2.862,1.549-7.208,1.549s-6.754-1.029-7.208-1.549C2.835,20.494,5.243,19.464,9.589,19.464z M9.589,52.424
		c-4.603,0-7.031-1.155-7.253-1.55v-2.445c1.848,0.817,4.556,1.201,7.253,1.201c2.704,0,5.419-0.386,7.267-1.208l0.001,2.366
		C16.62,51.269,14.192,52.424,9.589,52.424z"/>
	<path id="XMLID_437_" class="st0" d="M29.35,32.057c-4.773,0-9.589,1.201-9.589,3.886v14.93c0,2.686,4.816,3.887,9.589,3.887
		s9.589-1.201,9.589-3.887v-14.93C38.939,33.259,34.123,32.057,29.35,32.057z M36.612,45.663c-0.252,0.484-2.677,1.63-7.263,1.63
		c-4.601,0-7.03-1.155-7.253-1.549v-2.139c1.848,0.817,4.557,1.201,7.253,1.201c2.7,0,5.413-0.385,7.261-1.205L36.612,45.663z
		 M36.607,40.846c-0.265,0.486-2.686,1.624-7.258,1.624c-4.603,0-7.031-1.155-7.253-1.549v-2.292
		c1.848,0.818,4.557,1.202,7.253,1.202c2.698,0,5.408-0.384,7.256-1.203L36.607,40.846z M29.35,34.394
		c4.324,0,6.726,1.018,7.198,1.54c-0.019,0.024-0.039,0.047-0.067,0.073c-0.036,0.034-0.077,0.068-0.127,0.105
		c-0.055,0.04-0.126,0.082-0.199,0.125c-0.068,0.04-0.137,0.08-0.22,0.121c-0.089,0.045-0.196,0.09-0.302,0.136
		c-0.099,0.043-0.197,0.085-0.311,0.128c-0.124,0.046-0.27,0.092-0.412,0.137c-0.128,0.041-0.252,0.082-0.394,0.122
		c-0.164,0.046-0.352,0.088-0.535,0.13c-0.153,0.036-0.299,0.073-0.466,0.106c-0.211,0.042-0.449,0.077-0.682,0.114
		c-0.171,0.027-0.33,0.057-0.512,0.08c-0.279,0.036-0.59,0.061-0.896,0.087c-0.166,0.014-0.318,0.034-0.492,0.045
		c-0.496,0.031-1.022,0.049-1.583,0.049c-0.56,0-1.085-0.018-1.58-0.049c-0.215-0.013-0.404-0.037-0.606-0.055
		c-0.258-0.023-0.525-0.043-0.764-0.073c-0.306-0.039-0.585-0.086-0.859-0.135c-0.095-0.017-0.201-0.03-0.292-0.048
		c-1.786-0.348-2.825-0.867-3.107-1.19C22.596,35.423,25.004,34.394,29.35,34.394z M29.35,52.424c-4.603,0-7.031-1.155-7.253-1.55
		v-2.445c1.848,0.817,4.557,1.201,7.253,1.201c2.703,0,5.418-0.386,7.266-1.208l0.002,2.366
		C36.381,51.269,33.952,52.424,29.35,52.424z"/>
	<path id="XMLID_446_" class="st0" d="M77.102,0H13.93v6.965H6.965v5.767c0,0.646,0.523,1.168,1.168,1.168
		c0.645,0,1.168-0.523,1.168-1.168v-3.43H67.8v28.053H42.25c-0.645,0-1.168,0.522-1.168,1.168s0.523,1.168,1.168,1.168h27.887
		v-6.965h6.965C77.102,32.726,77.102,0,77.102,0z M74.766,30.389h-4.628V6.965H16.267V2.336h58.499V30.389z"/>
	<path id="XMLID_448_" class="st0" d="M63.202,19.452v7.752c-2.826,0.489-5.062,2.725-5.552,5.551H42.251
		c-0.645,0-1.168,0.523-1.168,1.168c0,0.646,0.523,1.168,1.168,1.168h17.636v-1.168c0-2.472,2.011-4.483,4.484-4.483h1.168V17.216
		H64.37c-2.473,0-4.484-2.011-4.484-4.485v-1.168h-42.67v1.168c0,0.775-0.2,1.537-0.578,2.206c-0.318,0.561-0.12,1.274,0.441,1.591
		c0.562,0.318,1.275,0.12,1.592-0.441c0.384-0.679,0.648-1.42,0.782-2.188H57.65C58.14,16.727,60.376,18.963,63.202,19.452z"/>
	<path id="XMLID_554_" class="st0" d="M45.42,23.328c0-3.788-3.081-6.869-6.869-6.869c-3.787,0-6.868,3.081-6.868,6.869
		s3.081,6.869,6.868,6.869C42.339,30.197,45.42,27.115,45.42,23.328z M38.551,27.86c-2.499,0-4.532-2.033-4.532-4.533
		s2.033-4.533,4.532-4.533s4.533,2.033,4.533,4.533S41.05,27.86,38.551,27.86z"/>
</g>
</svg>
