<?xml version="1.0" encoding="utf-8"?>
<!-- Generator: Adobe Illustrator 24.3.0, SVG Export Plug-In . SVG Version: 6.00 Build 0)  -->
<svg version="1.1" id="レイヤー_1" xmlns="http://www.w3.org/2000/svg" xmlns:xlink="http://www.w3.org/1999/xlink" x="0px"
	 y="0px" width="75.61px" height="73.497px" viewBox="0 0 75.61 73.497" style="enable-background:new 0 0 75.61 73.497;"
	 xml:space="preserve">
<style type="text/css">
	.st0{fill:#701D07;}
</style>
<g id="XMLID_432_">
	<path id="XMLID_581_" class="st0" d="M49.352,0L0,25.652v13.449l26.257,14.011L46.67,42.497c0.567-0.295,0.787-0.994,0.494-1.56
		c-0.296-0.567-0.996-0.787-1.56-0.494L26.27,50.498L2.313,37.714v-3.406l23.943,12.777l47.04-24.46v3.419l-10.049,5.225
		c-0.567,0.295-0.787,0.994-0.494,1.56c0.295,0.567,0.993,0.786,1.56,0.493l11.296-5.873v-13.45L49.352,0z M71.97,14.68
		l-45.7,23.765L3.638,26.368L49.339,2.614L71.97,14.68z M26.27,44.472L2.313,31.688v-3.406l23.943,12.777l47.04-24.46v3.419
		L26.27,44.472z"/>
	<path id="XMLID_585_" class="st0" d="M23.016,34.086l0.466-0.15c1.663-0.538,4.072-0.547,5.771-0.025l0.453,0.139l33.036-17.179
		l-0.098-0.796c-0.061-0.501-0.091-0.953-0.091-1.382c0-0.471,0.035-0.962,0.107-1.502l0.106-0.796l-9.809-5.229L52.47,7.344
		c-1.745,0.642-4.64,0.633-6.35-0.015l-0.483-0.183L13.959,23.611l-0.156,0.413c-0.296,0.784-0.91,1.699-1.727,2.576l-1.026,1.1
		L23.016,34.086z M15.789,25.267L45.808,9.665c2.048,0.625,4.904,0.634,6.956,0.018l7.516,4.007
		c-0.027,0.345-0.041,0.677-0.041,1.003c0,0.279,0.01,0.562,0.031,0.857L29.465,31.569c-1.912-0.486-4.325-0.473-6.208,0.024
		l-8.537-4.555C15.163,26.441,15.526,25.84,15.789,25.267z"/>
	<path id="XMLID_606_" class="st0" d="M34.431,25.338c0.047,0.001,0.095,0.001,0.142,0.001c1.507,0,3.263-0.416,4.965-1.177
		c1.754-0.786,3.273-1.86,4.277-3.025c1.205-1.398,1.576-2.821,1.046-4.005c-0.531-1.185-1.839-1.855-3.684-1.887
		c-1.524-0.046-3.351,0.391-5.105,1.176c-4.023,1.801-6.312,4.824-5.325,7.03C31.278,24.635,32.586,25.305,34.431,25.338z
		 M37.017,18.533c1.392-0.623,2.848-0.976,4.02-0.976c0.034,0,0.068,0,0.101,0.001c0.961,0.017,1.503,0.272,1.613,0.518l0.001,0.001
		c0.11,0.246-0.06,0.821-0.688,1.55c-0.775,0.899-2.04,1.782-3.47,2.423c-1.432,0.642-2.916,1.006-4.121,0.975
		c-0.961-0.017-1.503-0.272-1.613-0.518C32.581,21.886,33.949,19.906,37.017,18.533z"/>
	<path id="XMLID_609_" class="st0" d="M20.482,60.723c-4.726,0-9.493,1.189-9.493,3.847v5.079c0,2.659,4.768,3.848,9.493,3.848
		s9.493-1.189,9.493-3.848V64.57C29.975,61.912,25.207,60.723,20.482,60.723z M20.482,63.036c4.304,0,6.687,1.02,7.136,1.534
		c-0.448,0.515-2.832,1.535-7.136,1.535s-6.688-1.02-7.136-1.535C13.795,64.056,16.178,63.036,20.482,63.036z M20.482,71.184
		c-4.557,0-6.961-1.143-7.18-1.535v-2.421c1.829,0.809,4.511,1.19,7.18,1.19c2.673,0,5.358-0.382,7.188-1.193l0.007,2.34
		C27.442,70.041,25.038,71.184,20.482,71.184z"/>
	<path id="XMLID_613_" class="st0" d="M59.608,36.088c-4.726,0-9.494,1.189-9.494,3.848v29.562c0,2.658,4.768,3.847,9.494,3.847
		s9.493-1.189,9.493-3.847V39.936C69.101,37.277,64.333,36.088,59.608,36.088z M66.801,64.336c-0.238,0.478-2.642,1.618-7.193,1.618
		c-4.477,0-6.877-1.104-7.181-1.595v-2.057c1.83,0.809,4.511,1.19,7.181,1.19c2.675,0,5.362-0.382,7.192-1.195L66.801,64.336z
		 M66.798,59.563c-0.245,0.479-2.647,1.615-7.19,1.615c-4.477,0-6.877-1.104-7.181-1.595v-2.209c1.83,0.809,4.511,1.189,7.181,1.189
		c2.674,0,5.36-0.382,7.189-1.194L66.798,59.563z M66.795,54.639c-0.252,0.479-2.652,1.611-7.188,1.611
		c-4.477,0-6.876-1.103-7.181-1.594v-2.209c1.83,0.809,4.511,1.19,7.181,1.19c2.673,0,5.357-0.381,7.187-1.193L66.795,54.639z
		 M66.793,49.716c-0.264,0.482-2.662,1.608-7.185,1.608c-4.476,0-6.876-1.103-7.181-1.594v-2.209c1.83,0.809,4.511,1.19,7.181,1.19
		c2.671,0,5.355-0.381,7.184-1.191L66.793,49.716z M66.79,44.791c-0.266,0.483-2.663,1.606-7.182,1.606
		c-4.477,0-6.877-1.104-7.181-1.595v-2.208c1.83,0.81,4.511,1.19,7.181,1.19s5.352-0.38,7.181-1.19L66.79,44.791z M59.608,38.401
		c4.304,0,6.687,1.02,7.136,1.535c-0.448,0.515-2.832,1.535-7.136,1.535s-6.689-1.02-7.137-1.535
		C52.919,39.421,55.303,38.401,59.608,38.401z M59.608,71.031c-0.564,0-1.095-0.018-1.593-0.049
		c-0.39-0.025-0.745-0.064-1.094-0.104c-0.092-0.01-0.197-0.016-0.286-0.027c-2.574-0.334-3.979-1.045-4.208-1.413v-2.361
		c1.83,0.809,4.511,1.19,7.181,1.19c2.677,0,5.365-0.383,7.194-1.197l0.001,2.342C66.567,69.888,64.163,71.031,59.608,71.031z"/>
	<path id="XMLID_633_" class="st0" d="M40.045,50.869c-4.726,0-9.493,1.189-9.493,3.848v14.781c0,2.658,4.767,3.847,9.493,3.847
		s9.493-1.189,9.493-3.847V54.717C49.538,52.058,44.77,50.869,40.045,50.869z M47.235,64.339c-0.246,0.479-2.647,1.615-7.19,1.615
		c-4.478,0-6.876-1.104-7.18-1.595v-2.057c1.829,0.809,4.511,1.19,7.18,1.19c2.673,0,5.359-0.381,7.188-1.193L47.235,64.339z
		 M47.23,59.569c-0.259,0.482-2.657,1.609-7.185,1.609c-4.478,0-6.876-1.104-7.18-1.595v-2.209c1.829,0.809,4.511,1.189,7.18,1.189
		c2.671,0,5.353-0.381,7.183-1.191L47.23,59.569z M47.17,54.708c-0.019,0.024-0.04,0.048-0.068,0.074
		c-0.035,0.032-0.073,0.065-0.121,0.1c-0.057,0.041-0.13,0.085-0.205,0.129c-0.065,0.038-0.13,0.076-0.208,0.115
		c-0.092,0.046-0.202,0.093-0.312,0.14c-0.094,0.04-0.187,0.08-0.294,0.121c-0.128,0.048-0.277,0.095-0.425,0.142
		c-0.122,0.039-0.239,0.078-0.373,0.116c-0.168,0.047-0.36,0.09-0.548,0.134c-0.146,0.034-0.285,0.07-0.443,0.101
		c-0.214,0.043-0.456,0.078-0.692,0.115c-0.164,0.026-0.317,0.055-0.492,0.077c-0.281,0.036-0.592,0.061-0.9,0.087
		c-0.161,0.014-0.307,0.033-0.476,0.043c-0.491,0.031-1.012,0.049-1.568,0.049c-0.55,0-1.067-0.017-1.554-0.048
		c-0.17-0.01-0.317-0.03-0.479-0.044c-0.303-0.026-0.611-0.049-0.887-0.084c-0.178-0.023-0.331-0.052-0.498-0.078
		c-0.23-0.036-0.468-0.07-0.678-0.111c-0.164-0.032-0.305-0.069-0.456-0.104c-0.182-0.042-0.37-0.083-0.533-0.127
		c-0.139-0.038-0.257-0.079-0.383-0.119c-0.143-0.045-0.292-0.09-0.418-0.136c-0.11-0.041-0.201-0.081-0.297-0.122
		c-0.109-0.046-0.224-0.093-0.315-0.138c-0.079-0.039-0.14-0.076-0.205-0.113c-0.077-0.044-0.157-0.089-0.216-0.131
		c-0.049-0.034-0.082-0.066-0.118-0.098c-0.035-0.031-0.067-0.061-0.09-0.089c0.463-0.517,2.841-1.528,7.127-1.528
		C44.326,53.182,46.703,54.19,47.17,54.708z M40.045,71.031c-0.564,0-1.095-0.018-1.593-0.049c-0.373-0.024-0.71-0.061-1.045-0.099
		c-0.108-0.012-0.231-0.019-0.335-0.032c-2.573-0.334-3.978-1.045-4.206-1.413v-2.361c1.829,0.809,4.511,1.19,7.18,1.19
		c2.676,0,5.364-0.382,7.193-1.196l0.003,2.341C47.004,69.888,44.6,71.031,40.045,71.031z"/>
</g>
</svg>
