<?xml version="1.0" encoding="utf-8"?>
<!-- Generator: Adobe Illustrator 24.3.0, SVG Export Plug-In . SVG Version: 6.00 Build 0)  -->
<svg version="1.1" id="レイヤー_1" xmlns="http://www.w3.org/2000/svg" xmlns:xlink="http://www.w3.org/1999/xlink" x="0px"
	 y="0px" width="53.753px" height="67.449px" viewBox="0 0 53.753 67.449" style="enable-background:new 0 0 53.753 67.449;"
	 xml:space="preserve">
<style type="text/css">
	.st0{fill:#701D07;}
</style>
<g>
	<path class="st0" d="M10.324,23.734H43.43c0.804,0,1.455-0.651,1.455-1.455s-0.651-1.455-1.455-1.455H10.324
		c-0.804,0-1.455,0.651-1.455,1.455C8.868,23.083,9.519,23.734,10.324,23.734z"/>
	<path class="st0" d="M10.324,35.181H43.43c0.804,0,1.455-0.651,1.455-1.455s-0.651-1.455-1.455-1.455H10.324
		c-0.804,0-1.455,0.651-1.455,1.455C8.868,34.53,9.519,35.181,10.324,35.181z"/>
	<path class="st0" d="M10.324,46.627h15.683c0.804,0,1.455-0.651,1.455-1.455s-0.651-1.455-1.455-1.455H10.324
		c-0.804,0-1.455,0.651-1.455,1.455C8.868,45.976,9.519,46.627,10.324,46.627z"/>
	<path class="st0" d="M10.324,12.286H43.43c0.804,0,1.455-0.651,1.455-1.455s-0.651-1.455-1.455-1.455H10.324
		c-0.804,0-1.455,0.651-1.455,1.455C8.868,11.635,9.519,12.286,10.324,12.286z"/>
	<path class="st0" d="M26.007,55.163H10.324c-0.804,0-1.455,0.651-1.455,1.455s0.651,1.455,1.455,1.455h15.683
		c0.804,0,1.455-0.651,1.455-1.455S26.811,55.163,26.007,55.163z"/>
	<path class="st0" d="M30.967,0h-8.18 M42.058,0h-8.18 M8.783,0H5.98C2.683,0,0,2.683,0,5.98v55.488c0,3.297,2.683,5.98,5.98,5.98
		h28.971c0.38,0,0.754-0.152,1.029-0.426l17.346-17.344c0.267-0.267,0.426-0.718,0.426-1.029V5.98c0-3.297-2.683-5.98-5.982-5.98
		h-2.803 M19.876,0h-8.182 M2.911,61.469V5.98c0-1.693,1.377-3.07,3.07-3.07h41.791c1.694,0,3.071,1.377,3.071,3.07v41.214H39.477
		c-3.297,0-5.98,2.683-5.98,5.98v11.364H5.98C4.288,64.538,2.911,63.161,2.911,61.469z M36.407,62.48v-9.306
		c0-1.693,1.377-3.07,3.07-3.07h9.307L36.407,62.48z"/>
</g>
</svg>
