<?xml version="1.0" encoding="utf-8"?>
<!-- Generator: Adobe Illustrator 24.3.0, SVG Export Plug-In . SVG Version: 6.00 Build 0)  -->
<svg version="1.1" id="レイヤー_1" xmlns="http://www.w3.org/2000/svg" xmlns:xlink="http://www.w3.org/1999/xlink" x="0px"
	 y="0px" width="71.377px" height="72.172px" viewBox="0 0 71.377 72.172" style="enable-background:new 0 0 71.377 72.172;"
	 xml:space="preserve">
<style type="text/css">
	.st0{fill:none;stroke:#701D07;stroke-width:3;stroke-linecap:round;stroke-linejoin:round;stroke-miterlimit:10;}
</style>
<g>
	<g>
		<path class="st0" d="M30.175,6.419C13.9,8.202,1.269,22.104,1.503,38.908c0.237,17.031,14.73,31.524,31.761,31.761
			c16.803,0.234,30.706-12.396,32.489-28.672c0.207-1.894-1.28-3.548-3.186-3.548H36.239c-1.39,0-2.516-1.126-2.516-2.516V9.605
			C33.723,7.7,32.069,6.212,30.175,6.419z"/>
	</g>
	<g>
		<path class="st0" d="M41.395,3.927v23.632c0,1.339,1.085,2.424,2.424,2.424H67.45c1.423,0,2.546-1.222,2.417-2.639
			C68.615,13.658,57.719,2.763,44.034,1.51C42.617,1.381,41.395,2.503,41.395,3.927z"/>
	</g>
</g>
</svg>
