<?xml version="1.0" encoding="utf-8"?>
<!-- Generator: Adobe Illustrator 24.3.0, SVG Export Plug-In . SVG Version: 6.00 Build 0)  -->
<svg version="1.1" id="レイヤー_1" xmlns="http://www.w3.org/2000/svg" xmlns:xlink="http://www.w3.org/1999/xlink" x="0px"
	 y="0px" width="70.49px" height="71.278px" viewBox="0 0 70.49 71.278" style="enable-background:new 0 0 70.49 71.278;"
	 xml:space="preserve">
<style type="text/css">
	.st0{fill:none;stroke:#701D07;stroke-width:3;stroke-linecap:round;stroke-linejoin:round;stroke-miterlimit:10;}
	.st1{fill:#701D07;stroke:#701D07;stroke-width:2.2978;stroke-linecap:round;stroke-linejoin:round;stroke-miterlimit:10;}
</style>
<g>
	<g>
		<path class="st0" d="M29.95,6.029C13.802,7.798,1.271,21.591,1.503,38.263C1.738,55.16,16.118,69.54,33.015,69.775
			c16.672,0.232,30.465-12.299,32.234-28.447c0.206-1.879-1.27-3.52-3.161-3.52H35.966c-1.379,0-2.496-1.118-2.496-2.496V9.19
			C33.47,7.3,31.829,5.824,29.95,6.029z"/>
	</g>
	<g>
		<path class="st1" d="M41.082,3.557v23.446c0,1.328,1.077,2.405,2.405,2.405h23.446c1.412,0,2.526-1.212,2.398-2.618
			C68.088,13.212,57.278,2.402,43.7,1.159C42.294,1.03,41.082,2.144,41.082,3.557z"/>
	</g>
</g>
</svg>
