<?xml version="1.0" encoding="utf-8"?>
<!-- Generator: Adobe Illustrator 24.3.0, SVG Export Plug-In . SVG Version: 6.00 Build 0)  -->
<svg version="1.1" id="レイヤー_1" xmlns="http://www.w3.org/2000/svg" xmlns:xlink="http://www.w3.org/1999/xlink" x="0px"
	 y="0px" width="57.314px" height="76.297px" viewBox="0 0 57.314 76.297" style="enable-background:new 0 0 57.314 76.297;"
	 xml:space="preserve">
<style type="text/css">
	.st0{fill:#701D07;}
</style>
<g>
	<path class="st0" d="M55.807,9.051h-6.122V6.005c0-0.832-0.674-1.507-1.507-1.507h-5.355C42.149,1.919,39.821,0,37.033,0H20.28
		c-2.788,0-5.117,1.919-5.791,4.498H9.134c-0.833,0-1.507,0.675-1.507,1.507v3.046h-6.12C0.674,9.051,0,9.726,0,10.558V74.79
		c0,0.832,0.674,1.507,1.507,1.507h54.3c0.833,0,1.507-0.675,1.507-1.507V10.558C57.314,9.726,56.64,9.051,55.807,9.051z
		 M20.28,3.014h16.753c1.648,0,2.99,1.342,2.99,2.991s-1.342,2.991-2.99,2.991H20.28c-1.65,0-2.992-1.342-2.992-2.991
		C17.289,4.356,18.631,3.014,20.28,3.014z M10.641,7.512h3.848c0.674,2.579,3.003,4.498,5.791,4.498h16.753
		c2.788,0,5.116-1.919,5.789-4.498h3.848v7.77H36.139c-0.776,0-1.425,0.588-1.5,1.36c-0.306,3.114-2.877,5.462-5.982,5.462
		c-3.107,0-5.678-2.348-5.982-5.461c-0.075-0.772-0.724-1.36-1.5-1.36H10.641V7.512z M54.3,73.284H3.014V12.065h4.614v4.724
		c0,0.832,0.674,1.507,1.507,1.507h10.777c0.999,3.971,4.547,6.822,8.746,6.822c4.197,0,7.745-2.851,8.746-6.822h10.775
		c0.833,0,1.507-0.675,1.507-1.507v-4.724H54.3V73.284z"/>
	<path class="st0" d="M46.887,33.09l-3.972-0.578l-1.778-3.6c-0.506-1.029-2.196-1.029-2.702,0l-1.778,3.6l-3.972,0.578
		c-1.235,0.179-1.728,1.699-0.836,2.571l2.876,2.802l-0.678,3.957c-0.211,1.226,1.081,2.169,2.187,1.589l3.552-1.868l3.552,1.868
		c1.107,0.579,2.398-0.362,2.187-1.589l-0.678-3.957l2.876-2.802C48.615,34.789,48.122,33.269,46.887,33.09z M42.177,36.857
		c-0.355,0.347-0.517,0.845-0.433,1.334l0.296,1.728l-1.551-0.816c-0.441-0.231-0.963-0.231-1.404,0l-1.551,0.816l0.296-1.728
		c0.084-0.489-0.078-0.987-0.433-1.334l-1.257-1.224l1.735-0.252c0.492-0.071,0.915-0.38,1.135-0.824l0.777-1.574l0.777,1.574
		c0.219,0.444,0.643,0.753,1.135,0.824l1.735,0.252L42.177,36.857z"/>
	<path class="st0" d="M46.887,54.59l-3.972-0.577l-1.778-3.6c-0.506-1.029-2.196-1.029-2.702,0l-1.778,3.6l-3.972,0.577
		c-1.232,0.179-1.727,1.701-0.836,2.57l2.876,2.803l-0.678,3.957c-0.211,1.226,1.08,2.168,2.187,1.589l3.552-1.868l3.552,1.868
		c1.107,0.579,2.398-0.362,2.187-1.589l-0.678-3.957l2.876-2.803C48.614,56.292,48.119,54.769,46.887,54.59z M42.177,58.359
		c-0.355,0.346-0.517,0.845-0.433,1.333l0.296,1.728l-1.551-0.816c-0.441-0.231-0.963-0.231-1.404,0l-1.551,0.816l0.296-1.728
		c0.084-0.489-0.078-0.987-0.433-1.333l-1.257-1.225l1.735-0.252c0.492-0.071,0.915-0.38,1.135-0.825l0.777-1.573l0.777,1.573
		c0.219,0.445,0.643,0.753,1.135,0.825l1.735,0.252L42.177,58.359z"/>
	<path class="st0" d="M24.324,34.62H10.772c-0.833,0-1.507,0.675-1.507,1.507s0.674,1.507,1.507,1.507h13.552
		c0.833,0,1.507-0.675,1.507-1.507C25.831,35.295,25.157,34.62,24.324,34.62z"/>
	<path class="st0" d="M24.324,56.121H10.772c-0.833,0-1.507,0.675-1.507,1.507s0.674,1.507,1.507,1.507h13.552
		c0.833,0,1.507-0.675,1.507-1.507C25.831,56.796,25.157,56.121,24.324,56.121z"/>
</g>
</svg>
