<?xml version="1.0" encoding="utf-8"?>
<!-- Generator: Adobe Illustrator 25.3.1, SVG Export Plug-In . SVG Version: 6.00 Build 0)  -->
<!DOCTYPE svg PUBLIC "-//W3C//DTD SVG 1.1//EN" "http://www.w3.org/Graphics/SVG/1.1/DTD/svg11.dtd" [
	<!ENTITY ns_extend "http://ns.adobe.com/Extensibility/1.0/">
	<!ENTITY ns_ai "http://ns.adobe.com/AdobeIllustrator/10.0/">
	<!ENTITY ns_graphs "http://ns.adobe.com/Graphs/1.0/">
	<!ENTITY ns_vars "http://ns.adobe.com/Variables/1.0/">
	<!ENTITY ns_imrep "http://ns.adobe.com/ImageReplacement/1.0/">
	<!ENTITY ns_sfw "http://ns.adobe.com/SaveForWeb/1.0/">
	<!ENTITY ns_custom "http://ns.adobe.com/GenericCustomNamespace/1.0/">
	<!ENTITY ns_adobe_xpath "http://ns.adobe.com/XPath/1.0/">
]>
<svg version="1.1" id="レイヤー_1" xmlns:x="&ns_extend;" xmlns:i="&ns_ai;" xmlns:graph="&ns_graphs;"
	 xmlns="http://www.w3.org/2000/svg" xmlns:xlink="http://www.w3.org/1999/xlink" x="0px" y="0px" viewBox="0 0 75.2 75.2"
	 style="enable-background:new 0 0 75.2 75.2;" xml:space="preserve">
<metadata>
	<sfw  xmlns="&ns_sfw;">
		<slices></slices>
		<sliceSourceBounds  bottomLeftOrigin="true" height="75.2" width="75.2" x="217.8" y="-458.1"></sliceSourceBounds>
	</sfw>
</metadata>
<g>
	<path d="M74.5,71.4L56.3,53.1c4.9-5.6,7.9-13,7.9-21C64.1,14.4,49.7,0,32.1,0C14.4,0,0,14.4,0,32.1s14.4,32.1,32.1,32.1
		c8,0,15.4-3,21-7.9l18.3,18.3c0.4,0.4,1,0.7,1.6,0.7c0.6,0,1.2-0.2,1.6-0.7C75.4,73.7,75.4,72.2,74.5,71.4z M4.5,32.1
		C4.5,16.9,16.9,4.5,32,4.5c15.2,0,27.6,12.4,27.6,27.6S47.3,59.6,32,59.6C16.9,59.6,4.5,47.3,4.5,32.1z"/>
</g>
</svg>
