<?xml version="1.0" encoding="utf-8"?>
<!-- Generator: Adobe Illustrator 25.3.1, SVG Export Plug-In . SVG Version: 6.00 Build 0)  -->
<!DOCTYPE svg PUBLIC "-//W3C//DTD SVG 1.1//EN" "http://www.w3.org/Graphics/SVG/1.1/DTD/svg11.dtd" [
	<!ENTITY ns_extend "http://ns.adobe.com/Extensibility/1.0/">
	<!ENTITY ns_ai "http://ns.adobe.com/AdobeIllustrator/10.0/">
	<!ENTITY ns_graphs "http://ns.adobe.com/Graphs/1.0/">
	<!ENTITY ns_vars "http://ns.adobe.com/Variables/1.0/">
	<!ENTITY ns_imrep "http://ns.adobe.com/ImageReplacement/1.0/">
	<!ENTITY ns_sfw "http://ns.adobe.com/SaveForWeb/1.0/">
	<!ENTITY ns_custom "http://ns.adobe.com/GenericCustomNamespace/1.0/">
	<!ENTITY ns_adobe_xpath "http://ns.adobe.com/XPath/1.0/">
]>
<svg version="1.1" id="レイヤー_1" xmlns:x="&ns_extend;" xmlns:i="&ns_ai;" xmlns:graph="&ns_graphs;"
	 xmlns="http://www.w3.org/2000/svg" xmlns:xlink="http://www.w3.org/1999/xlink" x="0px" y="0px" viewBox="0 0 70.2 70.2"
	 style="enable-background:new 0 0 70.2 70.2;" xml:space="preserve">
<style type="text/css">
	.st0{fill:#8B4D5A;}
	.st1{fill:#FFFFFF;stroke:#FFFFFF;stroke-width:0.8;stroke-miterlimit:10;}
</style>
<metadata>
	<sfw  xmlns="&ns_sfw;">
		<slices></slices>
		<sliceSourceBounds  bottomLeftOrigin="true" height="70.2" width="70.2" x="559.9" y="-455.6"></sliceSourceBounds>
	</sfw>
</metadata>
<circle class="st0" cx="35.1" cy="35.1" r="35.1"/>
<g>
	<path class="st1" d="M20,40.2c-0.2-0.1-0.8-0.8-1-0.9c-0.2-0.2-0.5-0.6-0.7-0.9c-0.1,0.2-0.2,0.3-0.4,0.5c0.2,0.3,0.3,0.4,0.6,0.8
		c0.1,0.1,1,1,1,1L20,40.2z"/>
	<path class="st1" d="M27.9,27.5c0.2-0.1,0.4-0.1,0.7-0.2c1.1-0.3,1.9-0.4,2.6-0.4c0.9,0,1.7,0.2,2.6,0.6c0.2,0.1,0.3,0.2,0.5,0.2
		c0,0,0,0,0,0c0.2,0.1,0.4,0.2,0.6,0.3c0,0,0.1-0.1,0.2-0.1l0.3-0.3l-0.4-0.2c-0.3-0.2-0.6-0.3-0.9-0.5c-1-0.4-1.9-0.7-2.8-0.7
		c-0.8,0-1.6,0.1-2.8,0.4c-0.3,0.1-0.5,0.2-0.7,0.2c-0.7,0.2-1.2,0.3-3.3,0.4c0,0.3,0,0.4,0,0.6C26.6,27.8,27.2,27.7,27.9,27.5z"/>
	<path class="st1" d="M47.9,42.5c0,0.1,0,0.2,0,0.4c0,0.1,0,0.2-0.1,0.3c0,0,0,0,0,0c0,0.1,0,0.1-0.1,0.2c-0.2,0.5-1,0.9-1.7,0.9h0
		c-0.3,0-0.6-0.1-0.9-0.2l-0.6-0.3l0.2,0.6c0.2,0.8-0.1,1.4-0.5,1.8c-0.3,0.3-0.9,0.5-1.5,0.5c-0.3,0-0.6-0.1-0.9-0.2l-0.4-0.3
		l0,0.6c0,0.7,0,1.4-0.6,1.8c-0.3,0.2-0.8,0.4-1.2,0.4c-0.4,0-0.8-0.1-1.2-0.2l-0.5-0.2l0.1,0.5c0.1,0.8,0.1,1-0.2,1.5
		c-0.4,0.5-1,0.6-1.4,0.6c-0.2,0-0.4,0-0.7-0.1c-0.1,0-0.1,0-0.3-0.1l0,0c-0.1,0-0.2,0-0.2,0c-0.1,0-0.2-0.1-0.3-0.2l-0.4,0.4
		l0.3,0.2c0.3,0.2,0.6,0.2,0.7,0.3c0.3,0.1,0.5,0.1,0.8,0.1c0.8,0,1.5-0.3,1.9-0.8c0.4-0.5,0.5-0.9,0.4-1.5c0.3,0.1,0.7,0.1,1,0.1
		c0.6,0,1.1-0.2,1.6-0.5c0.7-0.5,0.8-1.3,0.8-1.9c0.2,0.1,0.5,0.1,0.7,0.1c0.7,0,1.5-0.3,1.9-0.7c0.4-0.4,0.8-1.1,0.7-1.9
		c0.2,0.1,0.4,0.1,0.7,0.1c0,0,0,0,0,0c1,0,2-0.5,2.3-1.3c0.1-0.2,0.1-0.5,0.2-0.7l0-0.3l-0.3-0.1C48.1,42.6,48,42.6,47.9,42.5z"/>
	<path class="st1" d="M22.4,26.3l-5-2.8c-0.2-0.1-0.4-0.2-0.6-0.2c-0.5,0-0.9,0.3-1.1,0.7L9.3,35.2c-0.2,0.3-0.2,0.6-0.1,1
		c0.1,0.3,0.3,0.6,0.6,0.8l5,2.8c0.2,0.1,0.4,0.2,0.6,0.2c0,0,0,0,0,0c0.5,0,0.9-0.3,1.1-0.7l6.3-11.2C23.2,27.5,23,26.7,22.4,26.3z
		 M22.3,27.8L16,39c-0.1,0.2-0.4,0.4-0.6,0.4c-0.1,0-0.2,0-0.3-0.1l-5-2.8c-0.2-0.1-0.3-0.2-0.3-0.4c0-0.2,0-0.4,0.1-0.6l6.3-11.2
		c0.1-0.2,0.4-0.4,0.6-0.4c0.1,0,0.2,0,0.3,0.1l5,2.8C22.4,27,22.5,27.5,22.3,27.8z"/>
	<path class="st1" d="M61.4,35.2L55.1,24c-0.2-0.4-0.7-0.7-1.1-0.7c-0.2,0-0.4,0.1-0.6,0.2l-5,2.8c-0.6,0.3-0.8,1.1-0.5,1.8
		l6.3,11.2c0.2,0.4,0.7,0.7,1.1,0.7c0,0,0,0,0,0c0.2,0,0.4-0.1,0.6-0.2l5-2.8C61.5,36.7,61.7,35.9,61.4,35.2z M60.6,36.5l-5,2.8
		c-0.1,0.1-0.2,0.1-0.3,0.1h0c-0.3,0-0.5-0.1-0.6-0.4l-6.3-11.2c-0.2-0.3-0.1-0.8,0.2-1l5-2.8c0.1-0.1,0.2-0.1,0.3-0.1
		c0.3,0,0.5,0.1,0.6,0.4l6.3,11.2C61.1,35.9,61,36.3,60.6,36.5z"/>
	<path class="st1" d="M52.5,38.4c-0.1,0.2-0.5,0.7-0.7,1c-0.2,0.3-0.4,0.5-0.5,0.7c-0.2,0.4-0.7,0.9-0.9,1c-0.4,0.3-0.9,0.4-1.5,0.4
		c-0.5,0-0.9-0.1-1.3-0.3c-1.1-0.5-4.6-3.7-5.8-4.8c-0.2-0.2-0.3-0.3-0.4-0.4c-1.4-1.2-2.9-2.4-4.7-2.4c-0.6,0-1.3,0.1-1.9,0.4
		c-0.2,0.1-0.4,0.2-0.7,0.4c-0.9,0.6-2.3,1.5-3.8,1.5c-0.3,0-0.5,0-0.8-0.1c-0.6-0.1-1.6-0.8-1.9-1.5c-0.2-0.3-0.2-0.6-0.1-0.9
		c0.2-0.3,2.4-1.5,4-2.4c1.6-0.9,3.1-1.7,3.5-2.1c1.5-1.3,3.1-2,4.5-2c0.5,0,0.9,0.1,1.4,0.2c0.7,0.2,1.4,0.4,2.1,0.5
		c0.3,0.1,0.6,0.1,0.9,0.2c0.1,0,0.3,0,0.4,0c0.3,0,1.1-0.1,1.4-0.1c0.1,0,0.3,0,0.4-0.1c0-0.2,0-0.4,0-0.6c-0.2,0-0.3,0-0.5,0.1
		c-0.3,0-1.1,0.1-1.3,0.1c-0.1,0-0.2,0-0.3,0c-0.3-0.1-0.6-0.1-0.9-0.2c-0.7-0.1-1.4-0.3-2.1-0.5c-0.5-0.2-1-0.2-1.6-0.2
		c-1.6,0-3.2,0.7-4.9,2.1c-0.4,0.3-1.9,1.2-3.4,2c-3.1,1.7-4.1,2.3-4.3,2.7c-0.2,0.4-0.2,0.9,0.1,1.4c0.4,0.9,1.6,1.7,2.3,1.8
		c0.3,0.1,0.6,0.1,0.9,0.1c1.7,0,3.2-1,4.1-1.6c0.3-0.2,0.5-0.3,0.6-0.4c0.6-0.2,1.1-0.4,1.7-0.4c1.6,0,3,1.1,4.3,2.2
		c0.1,0.1,0.3,0.2,0.4,0.4c1.4,1.3,4.8,4.3,6,4.9c0.5,0.2,1,0.3,1.5,0.3c0,0,0,0,0,0c0.6,0,1.3-0.2,1.8-0.5c0.3-0.2,0.8-0.9,1.1-1.2
		c0.1-0.2,0.3-0.4,0.4-0.6c0.3-0.4,0.5-0.7,0.6-1C52.8,38.7,52.7,38.6,52.5,38.4z"/>
	<path class="st1" d="M25.6,39.4c0-0.5-0.3-1-0.6-1.3c-0.3-0.3-0.8-0.5-1.3-0.5c-0.5,0-1,0.2-1.4,0.6l-2.8,3.1
		c-0.3,0.4-0.5,0.9-0.5,1.4c0,0.5,0.3,1,0.6,1.3c0.3,0.3,0.8,0.5,1.3,0.5c0.5,0,1-0.2,1.4-0.6l2.8-3.1
		C25.5,40.4,25.6,39.9,25.6,39.4z M24.7,40.4l-2.8,3.1c-0.2,0.3-0.6,0.4-1,0.4c-0.3,0-0.6-0.1-0.9-0.3c-0.3-0.2-0.4-0.6-0.4-0.9
		c0-0.3,0.1-0.7,0.3-0.9l2.8-3.1c0.2-0.3,0.6-0.4,1-0.4c0.3,0,0.6,0.1,0.9,0.3c0.3,0.2,0.4,0.6,0.4,0.9
		C25.1,39.8,24.9,40.1,24.7,40.4z"/>
	<path class="st1" d="M29,42.3c0-0.5-0.3-1-0.6-1.3c-0.3-0.3-0.8-0.5-1.3-0.5c-0.5,0-1,0.2-1.4,0.6l-2.8,3.1
		c-0.3,0.4-0.5,0.9-0.5,1.4c0,0.5,0.3,1,0.6,1.3c0.3,0.3,0.8,0.5,1.3,0.5c0.5,0,1-0.2,1.4-0.6l2.8-3.1C28.8,43.3,29,42.8,29,42.3z
		 M28.1,43.3l-2.8,3.1c-0.2,0.3-0.6,0.4-1,0.4c-0.3,0-0.6-0.1-0.9-0.3C23.2,46.3,23,46,23,45.6c0-0.3,0.1-0.7,0.3-0.9l2.8-3.1
		c0.2-0.3,0.6-0.4,1-0.4c0.3,0,0.6,0.1,0.9,0.3C28.5,41.9,28.5,42.8,28.1,43.3z"/>
	<path class="st1" d="M32,43.8c-0.3-0.3-0.8-0.5-1.3-0.5c-0.5,0-1,0.2-1.4,0.6l-2.8,3.1c-0.3,0.4-0.5,0.9-0.5,1.4
		c0,0.5,0.3,1,0.6,1.3c0.3,0.3,0.8,0.5,1.3,0.5c0.5,0,1-0.2,1.4-0.6l2.8-3.1C32.8,45.7,32.8,44.5,32,43.8z M31.7,46.1l-2.8,3.1
		c-0.2,0.3-0.6,0.4-1,0.4c-0.3,0-0.6-0.1-0.9-0.3c-0.3-0.2-0.4-0.6-0.4-0.9c0-0.3,0.1-0.7,0.3-0.9l2.8-3.1c0.2-0.3,0.6-0.4,1-0.4
		c0.3,0,0.6,0.1,0.9,0.3C32.1,44.7,32.2,45.5,31.7,46.1z"/>
	<path class="st1" d="M36.2,47.7c0-0.5-0.3-1-0.6-1.3c-0.3-0.3-0.8-0.5-1.3-0.5c-0.5,0-1,0.2-1.4,0.6l-2.8,3.1
		c-0.7,0.8-0.6,2,0.2,2.7c0.3,0.3,0.8,0.5,1.3,0.5c0.5,0,1-0.2,1.4-0.6l2.8-3.1C36,48.6,36.2,48.2,36.2,47.7z M35.3,48.6l-2.8,3.1
		c-0.2,0.3-0.6,0.4-1,0.4c-0.3,0-0.6-0.1-0.9-0.3c-0.5-0.5-0.6-1.3-0.1-1.8l2.8-3.1c0.2-0.3,0.6-0.4,1-0.4c0.3,0,0.6,0.1,0.9,0.3
		c0.3,0.2,0.4,0.6,0.4,0.9C35.6,48,35.5,48.4,35.3,48.6z"/>
</g>
</svg>
