<?xml version="1.0" encoding="utf-8"?>
<!-- Generator: Adobe Illustrator 25.3.1, SVG Export Plug-In . SVG Version: 6.00 Build 0)  -->
<!DOCTYPE svg PUBLIC "-//W3C//DTD SVG 1.1//EN" "http://www.w3.org/Graphics/SVG/1.1/DTD/svg11.dtd" [
	<!ENTITY ns_extend "http://ns.adobe.com/Extensibility/1.0/">
	<!ENTITY ns_ai "http://ns.adobe.com/AdobeIllustrator/10.0/">
	<!ENTITY ns_graphs "http://ns.adobe.com/Graphs/1.0/">
	<!ENTITY ns_vars "http://ns.adobe.com/Variables/1.0/">
	<!ENTITY ns_imrep "http://ns.adobe.com/ImageReplacement/1.0/">
	<!ENTITY ns_sfw "http://ns.adobe.com/SaveForWeb/1.0/">
	<!ENTITY ns_custom "http://ns.adobe.com/GenericCustomNamespace/1.0/">
	<!ENTITY ns_adobe_xpath "http://ns.adobe.com/XPath/1.0/">
]>
<svg version="1.1" id="レイヤー_1" xmlns:x="&ns_extend;" xmlns:i="&ns_ai;" xmlns:graph="&ns_graphs;"
	 xmlns="http://www.w3.org/2000/svg" xmlns:xlink="http://www.w3.org/1999/xlink" x="0px" y="0px" viewBox="0 0 74.3 60.4"
	 style="enable-background:new 0 0 74.3 60.4;" xml:space="preserve">
<style type="text/css">
	.st0{fill:#1D9BF0;}
</style>
<metadata>
	<sfw  xmlns="&ns_sfw;">
		<slices></slices>
		<sliceSourceBounds  bottomLeftOrigin="true" height="60.4" width="74.3" x="260.8" y="-451.5"></sliceSourceBounds>
	</sfw>
</metadata>
<path id="Logo_1_" class="st0" d="M66.7,15c0,0.7,0,1.3,0,2c0,20.1-15.3,43.4-43.4,43.4v0C15.1,60.4,7,58,0,53.5
	c1.2,0.1,2.4,0.2,3.6,0.2c6.9,0,13.5-2.3,18.9-6.5C16,47.1,10.3,42.8,8.3,36.6c2.3,0.4,4.6,0.4,6.9-0.3C8.1,34.9,3,28.7,3,21.4
	c0-0.1,0-0.1,0-0.2c2.1,1.2,4.5,1.8,6.9,1.9C3.2,18.7,1.1,9.7,5.2,2.8c7.7,9.5,19.2,15.3,31.4,15.9C35.4,13.4,37,7.9,41,4.1
	c6.1-5.8,15.8-5.5,21.6,0.7c3.4-0.7,6.7-1.9,9.7-3.7c-1.1,3.5-3.5,6.5-6.7,8.4c3-0.4,6-1.2,8.8-2.4C72.3,10.2,69.7,12.9,66.7,15z"/>
</svg>
