<?xml version="1.0" encoding="utf-8"?>
<!-- Generator: Adobe Illustrator 25.3.1, SVG Export Plug-In . SVG Version: 6.00 Build 0)  -->
<!DOCTYPE svg PUBLIC "-//W3C//DTD SVG 1.1//EN" "http://www.w3.org/Graphics/SVG/1.1/DTD/svg11.dtd" [
	<!ENTITY ns_extend "http://ns.adobe.com/Extensibility/1.0/">
	<!ENTITY ns_ai "http://ns.adobe.com/AdobeIllustrator/10.0/">
	<!ENTITY ns_graphs "http://ns.adobe.com/Graphs/1.0/">
	<!ENTITY ns_vars "http://ns.adobe.com/Variables/1.0/">
	<!ENTITY ns_imrep "http://ns.adobe.com/ImageReplacement/1.0/">
	<!ENTITY ns_sfw "http://ns.adobe.com/SaveForWeb/1.0/">
	<!ENTITY ns_custom "http://ns.adobe.com/GenericCustomNamespace/1.0/">
	<!ENTITY ns_adobe_xpath "http://ns.adobe.com/XPath/1.0/">
]>
<svg version="1.1" id="レイヤー_1" xmlns:x="&ns_extend;" xmlns:i="&ns_ai;" xmlns:graph="&ns_graphs;"
	 xmlns="http://www.w3.org/2000/svg" xmlns:xlink="http://www.w3.org/1999/xlink" x="0px" y="0px" viewBox="0 0 69.2 56.2"
	 style="enable-background:new 0 0 69.2 56.2;" xml:space="preserve">
<style type="text/css">
	.st0{fill:#AEAEAE;}
</style>
<metadata>
	<sfw  xmlns="&ns_sfw;">
		<slices></slices>
		<sliceSourceBounds  bottomLeftOrigin="true" height="56.2" width="69.2" x="386.1" y="-326.7"></sliceSourceBounds>
	</sfw>
</metadata>
<path id="Logo_2_" class="st0" d="M62.1,14c0,0.6,0,1.2,0,1.8c0,18.8-14.3,40.4-40.4,40.4v0C14,56.2,6.5,54,0,49.8
	C1.1,50,2.2,50,3.4,50C9.8,50.1,16,47.9,21,44c-6.1-0.1-11.4-4.1-13.3-9.9c2.1,0.4,4.3,0.3,6.4-0.2C7.5,32.5,2.8,26.7,2.8,19.9
	c0-0.1,0-0.1,0-0.2c2,1.1,4.2,1.7,6.4,1.8C3,17.4,1,9.1,4.8,2.6c7.2,8.9,17.8,14.3,29.3,14.8c-1.1-4.9,0.4-10.1,4.1-13.6
	c5.7-5.4,14.7-5.1,20.1,0.6c3.2-0.6,6.2-1.8,9-3.4C66.2,4.3,64,7.1,61,8.9c2.8-0.3,5.6-1.1,8.2-2.2C67.3,9.5,64.9,12,62.1,14z"/>
</svg>
